<?xml version="1.0" encoding="UTF-8" standalone="no" ?>
<!DOCTYPE svg PUBLIC "-//W3C//DTD SVG 1.1//EN" "http://www.w3.org/Graphics/SVG/1.1/DTD/svg11.dtd">
<svg xmlns="http://www.w3.org/2000/svg" xmlns:xlink="http://www.w3.org/1999/xlink" version="1.1" width="1080" height="1080" viewBox="0 0 1080 1080" xml:space="preserve">
<desc>Created with Fabric.js 5.2.4</desc>
<defs>
</defs>
<g transform="matrix(1 0 0 1 540 540)" id="66f6ced9-0d7c-4469-a5cf-fb6ce7e29f08"  >
<rect style="stroke: none; stroke-width: 1; stroke-dasharray: none; stroke-linecap: butt; stroke-dashoffset: 0; stroke-linejoin: miter; stroke-miterlimit: 4; fill: rgb(255,255,255); fill-rule: nonzero; opacity: 1; visibility: hidden;" vector-effect="non-scaling-stroke"  x="-540" y="-540" rx="0" ry="0" width="1080" height="1080" />
</g>
<g transform="matrix(1 0 0 1 540 540)" id="7bda457b-ec2e-4fa9-84c7-6a44b66bf414"  >
</g>
<g transform="matrix(3.38 0 0 3.38 540 540)"  >
<path style="stroke: rgb(255,255,255); stroke-width: 1; stroke-dasharray: none; stroke-linecap: butt; stroke-dashoffset: 0; stroke-linejoin: miter; stroke-miterlimit: 4; fill: rgb(255,255,255); fill-rule: nonzero; opacity: 1;" vector-effect="non-scaling-stroke"  transform=" translate(-255.97, -372.21)" d="M 372.52 362.62 L 368.45 375.31 L 376.53 375.31 Z M 377.95 380.37 L 366.95 380.37 L 364.95 386.25 L 357.95 386.25 L 367.95 358.19 L 376.95 358.19 L 386.95 386.25 L 379.9 386.25 Z M 355.06 370 L 355.06 385.25 C 351.92314197905387 386.2587252628352 348.6449353408197 386.75839012633537 345.35 386.73 C 335.58000000000004 386.73 331 382.39000000000004 331 372.17 C 331 361.95 335.58 357.64000000000004 345.35 357.64000000000004 C 348.50444618883637 357.57943778734506 351.6421950647766 358.1120070560181 354.6 359.21000000000004 L 354.6 364.64000000000004 C 351.7952749010933 363.6809812369433 348.8540765575457 363.1812138949857 345.89000000000004 363.16 C 340.01000000000005 363.16 338.17 365.54 338.17 372.16 C 338.17 379.09000000000003 340.1 381.38000000000005 345.65000000000003 381.38000000000005 C 346.88050896064556 381.3779395719132 348.109646560832 381.2977784240749 349.33000000000004 381.14000000000004 L 349.33000000000004 374.87000000000006 L 344.12000000000006 374.87000000000006 L 344.12000000000006 370 Z M 319 358.19 L 326 358.19 L 326 386.25 L 319 386.25 Z M 295.58 358.19 L 302.58 358.19 L 302.58 380.92 L 314.64 380.92 L 314.64 386.26 L 295.59 386.26 Z M 269.96 385.19 L 269.96 379.73 C 272.97948026616865 380.74341327077417 276.14502213978824 381.25354862073846 279.33 381.24 C 282.56 381.24 283.96999999999997 380.40000000000003 283.96999999999997 378.24 C 283.96999999999997 376.34000000000003 283.36999999999995 375.8 280.77 375.24 L 276.09999999999997 374.24 C 271.24999999999994 373.24 269.61999999999995 371.24 269.61999999999995 366.46000000000004 C 269.61999999999995 360.31000000000006 273.23999999999995 357.66 280.53 357.66 C 283.5963079443814 357.6191526374459 286.6449263337016 358.1306430560985 289.53 359.17 L 289.53 364.66 C 286.78841147534365 363.69705883573016 283.9057318798697 363.19689871834424 281 363.18 C 277.53 363.18 276.36 364.08 276.36 366.28000000000003 C 276.36 368.09000000000003 277.17 368.6 279.43 369.08000000000004 L 283.95 370.08000000000004 C 289.26 371.23 290.7 373.00000000000006 290.7 378.01000000000005 C 290.7 384.01000000000005 286.99 386.78000000000003 279.43 386.78000000000003 C 276.21449651258433 386.79642985640123 273.02050266975675 386.25507496778636 269.99 385.18 M 245.91000000000003 358.18 L 265.56 358.18 L 265.56 363.55 L 252.88 363.55 L 252.88 369.46000000000004 L 263.4 369.46000000000004 L 263.4 374.74 L 252.88 374.74 L 252.88 380.92 L 265.81 380.92 L 265.81 386.26 L 245.89 386.26 Z M 228.19000000000003 380.91 C 232.29000000000002 380.91 233.65000000000003 378.77000000000004 233.65000000000003 372.20000000000005 C 233.65000000000003 365.63000000000005 232.29000000000002 363.55000000000007 228.19000000000003 363.55000000000007 L 222.88000000000002 363.55000000000007 L 222.88000000000002 380.9100000000001 Z M 215.86 358.18 L 228.4 358.18 C 238.23000000000002 358.18 240.79000000000002 362.18 240.79000000000002 372.18 C 240.79000000000002 381.89 237.99 386.18 228.40000000000003 386.18 L 215.83 386.18 Z M 210.10000000000002 358.18 L 210.10000000000002 386.24 L 201.57000000000002 386.24 L 189.61 366 L 189.61 386.29 L 183.1 386.29 L 183.1 358.19 L 191.63 358.19 L 203.54 378.51 L 203.54 358.19 Z M 152.83 377.11 L 152.83 358.19 L 159.83 358.19 L 159.83 376.9 C 159.83 380 161.25 381.17999999999995 165.04000000000002 381.17999999999995 C 168.83000000000004 381.17999999999995 170.22000000000003 379.99999999999994 170.22000000000003 376.9 L 170.22000000000003 358.19 L 177.22000000000003 358.19 L 177.22000000000003 377.12 C 177.22000000000003 383.72 173.39000000000001 386.77 165.01000000000002 386.77 C 156.63000000000002 386.77 152.8 383.77 152.8 377.12 M 141.41000000000003 377.93 C 141.41000000000003 375.34000000000003 140.41000000000003 374.25 138.00000000000003 374.25 L 131.70000000000002 374.25 L 131.70000000000002 381.51 L 138 381.51 C 140.5 381.51 141.41 380.45 141.41 377.92 M 131.7 369.92 L 137.57999999999998 369.92 C 139.92999999999998 369.92 140.98999999999998 368.92 140.98999999999998 366.48 C 140.98999999999998 364.04 139.98999999999998 362.95000000000005 137.57999999999998 362.95000000000005 L 131.7 362.95000000000005 Z M 148.22 378.6 C 148.22 383.6 145.9 386.26000000000005 139.57 386.26000000000005 L 125 386.26000000000005 L 125 358.19 L 139 358.19 C 145.54 358.19 147.8 360.78 147.8 365.51 C 147.8 369.15999999999997 146.44 370.78999999999996 142.56 371.75 L 141.84 371.96 L 142.47 372.08 C 146.84 373.08 148.2 374.66999999999996 148.2 378.59" stroke-linecap="round" />
</g>
</svg>