<?xml version="1.0" encoding="UTF-8" standalone="no" ?>
<!DOCTYPE svg PUBLIC "-//W3C//DTD SVG 1.1//EN" "http://www.w3.org/Graphics/SVG/1.1/DTD/svg11.dtd">
<svg xmlns="http://www.w3.org/2000/svg" xmlns:xlink="http://www.w3.org/1999/xlink" version="1.1" width="1080" height="1080" viewBox="0 0 1080 1080" xml:space="preserve">
<desc>Created with Fabric.js 5.2.4</desc>
<defs>
</defs>
<g transform="matrix(1 0 0 1 540 540)" id="468edd6f-d208-42d8-8eaf-4677d3b5a991"  >
</g>
<g transform="matrix(1 0 0 1 540 540)" id="27e16f22-8683-4ea6-8968-1eb345e87c5c"  >
<rect style="stroke: none; stroke-width: 1; stroke-dasharray: none; stroke-linecap: butt; stroke-dashoffset: 0; stroke-linejoin: miter; stroke-miterlimit: 4; fill: rgb(255,255,255); fill-rule: nonzero; opacity: 1; visibility: hidden;" vector-effect="non-scaling-stroke"  x="-540" y="-540" rx="0" ry="0" width="1080" height="1080" />
</g>
<g transform="matrix(3.13 0 0 3.13 540 540)"  >
<path style="stroke: rgb(255,255,255); stroke-width: 1; stroke-dasharray: none; stroke-linecap: butt; stroke-dashoffset: 0; stroke-linejoin: miter; stroke-miterlimit: 4; fill: rgb(255,255,255); fill-rule: nonzero; opacity: 1;" vector-effect="non-scaling-stroke"  transform=" translate(-255.52, -229.64)" d="M 357.08 199.41 C 351.2094347680549 199.40595551682998 345.9148617409975 202.93972032602898 343.6664249805242 208.36264247506628 C 341.4179882200509 213.78556462410356 342.65876657845666 220.0289984814363 346.8098840485102 224.18011595148982 C 350.96100151856365 228.33123342154332 357.2044353758964 229.57201177994907 362.6273575249337 227.32357501947578 C 368.050279673971 225.0751382590025 371.58404448317 219.7805652319451 371.58 213.91 C 371.5634967853713 205.9087169525725 365.0812830474275 199.42650321462872 357.08 199.41 M 340.22999999999996 235.19 C 340.37999999999994 235.7 339.9 236.03 338.96 236.76 L 338.39 237.06 L 338.59999999999997 237.45 C 338.71999999999997 237.66 338.51 238.04999999999998 338.11999999999995 238.23 L 337.24999999999994 238.67999999999998 C 336.85999999999996 238.85999999999999 336.43999999999994 238.82999999999998 336.31999999999994 238.58999999999997 L 336.13999999999993 238.22999999999996 L 335.04999999999995 238.76999999999995 L 335.22999999999996 239.12999999999997 C 335.34999999999997 239.36999999999998 335.10999999999996 239.72999999999996 334.71999999999997 239.90999999999997 L 333.84999999999997 240.32999999999996 C 333.42999999999995 240.50999999999996 333.01 240.44999999999996 332.84999999999997 240.20999999999995 L 332.7 239.87999999999994 C 329.34999999999997 241.44999999999993 325.62 243.10999999999993 321.76 244.87999999999994 L 321.96999999999997 245.38999999999993 C 322.09 245.59999999999994 321.84999999999997 245.95999999999992 321.46 246.16999999999993 L 320.59 246.55999999999992 C 320.2 246.73999999999992 319.78 246.67999999999992 319.65999999999997 246.4399999999999 L 319.45 245.95999999999992 L 318.18 246.55999999999992 L 318.42 247.0399999999999 C 318.54 247.30999999999992 318.3 247.6699999999999 317.91 247.8499999999999 L 317.04 248.2399999999999 C 316.65000000000003 248.4199999999999 316.23 248.3899999999999 316.11 248.1199999999999 L 315.90000000000003 247.6399999999999 C 314.12000000000006 248.3599999999999 312.22 248.6399999999999 310.84000000000003 246.0399999999999 C 310.24 244.8299999999999 310.21000000000004 242.0399999999999 309.75000000000006 240.5799999999999 C 309.556734814564 240.09477774176588 309.1174482917142 239.75098828910086 308.6000000000001 239.6799999999999 C 291.6000000000001 236.4199999999999 285.8400000000001 240.0399999999999 274.93000000000006 237.3599999999999 C 271.52000000000004 236.5199999999999 269.6500000000001 233.3599999999999 265.43000000000006 233.3599999999999 C 256.24000000000007 233.0899999999999 253.49000000000007 233.2099999999999 243.52000000000007 232.8199999999999 C 243.10000000000008 234.2999999999999 243.04000000000008 234.5999999999999 243.04000000000008 234.5999999999999 L 208 234.44 L 213.34 237.09 L 215.09 252.55 C 215.09 252.55 213.67000000000002 252.97 213.25 253.03 C 213.58 256.13 213.91 260.29 214.09 264.03 C 214.24 267.40999999999997 214.42000000000002 270.92999999999995 214.39000000000001 273.19 C 214.47556187201218 275.99979316631146 213.0928110150785 278.65164412481437 210.74 280.19 C 210.44 280.43 209.08 281.34 207.51000000000002 282.27 C 205.94000000000003 283.2 204.07000000000002 284.16999999999996 203.11 284.65 C 203.20000000000002 285.07 203.5 285.48999999999995 203.59 285.83 C 182.25 296.14 155.81 299.66999999999996 147.25 316.06 C 146.25 317.96 142.76 316.96 142.67 314.91 C 142.67 313.98 142.67 312.44 142.67 311.62 L 142.33999999999997 311.62 C 142.06999999999996 311.62 141.85999999999999 311.23 141.89 310.81 L 141.89 309.81 C 141.89 309.36 142.16 309.03000000000003 142.42999999999998 309.03000000000003 L 142.79 309.03000000000003 C 142.90635008333714 308.0855095188958 143.08676591989314 307.150019996013 143.32999999999998 306.23 L 142.99999999999997 306.11 C 142.75999999999996 306.02000000000004 142.66999999999996 305.6 142.81999999999996 305.18 L 143.11999999999998 304.28000000000003 C 143.29999999999998 303.86 143.59999999999997 303.62 143.86999999999998 303.71000000000004 L 144.2 303.8 C 145.70999999999998 300.24 148.66 298.68 150.01999999999998 295.33 L 149.80999999999997 295.24 C 149.53999999999996 295.15000000000003 149.44999999999996 294.73 149.59999999999997 294.31 L 149.89999999999998 293.41 C 150.07999999999998 293.02000000000004 150.40999999999997 292.75 150.64999999999998 292.84000000000003 L 150.89 292.90000000000003 C 151.1 292.42 151.33999999999997 291.90000000000003 151.60999999999999 291.36 L 151.30999999999997 291.15000000000003 C 151.06999999999996 291.00000000000006 151.06999999999996 290.58000000000004 151.30999999999997 290.22 L 151.81999999999996 289.41 C 152.05999999999997 289.05 152.44999999999996 288.87 152.65999999999997 289.02000000000004 L 152.77999999999997 289.08000000000004 L 152.92999999999998 289.08000000000004 C 152.98999999999998 289.08000000000004 153.01999999999998 289.08000000000004 153.07999999999998 289.02000000000004 C 153.22244676162697 288.8721199682489 153.37265897999367 288.7319218977733 153.52999999999997 288.6 C 154.87027173851297 287.619838273334 156.68418310322005 287.595759803891 158.04999999999998 288.54 C 159.38 289.35 164.61999999999998 292.34000000000003 169.64999999999998 287.79 C 177.96999999999997 280.34000000000003 187.70999999999998 270.19 195.02999999999997 269.85 C 193.02999999999997 265.54 189.59999999999997 256.59000000000003 189.20999999999998 253.27000000000004 L 186.73999999999998 252.76000000000005 C 185.46999999999997 250.02000000000004 182.33999999999997 237.30000000000004 181.45999999999998 227.76000000000005 C 181.45999999999998 227.76000000000005 180.45999999999998 217.45000000000005 181.45999999999998 213.83000000000004 C 180.89 213.77000000000004 179.85999999999999 214.61000000000004 179.55999999999997 214.61000000000004 C 178.22999999999996 211.32000000000005 182.55999999999997 183.61000000000004 186.87999999999997 175.48000000000005 L 193.47999999999996 172.86000000000004 C 192.78999999999996 172.77000000000004 188.01999999999995 172.56000000000003 175.47999999999996 171.53000000000003 C 168.47999999999996 177.71000000000004 160.37999999999997 184.40000000000003 156.27999999999997 188.05000000000004 C 155.58999999999997 188.56000000000003 154.40999999999997 192.51000000000005 154.40999999999997 192.51000000000005 C 154.40999999999997 192.51000000000005 152.32999999999996 194.35000000000005 150.40999999999997 195.68000000000004 C 147.84999999999997 197.49000000000004 141.63999999999996 198.85000000000002 140.30999999999997 196.74000000000004 C 139.97999999999996 196.23000000000005 140.03999999999996 195.99000000000004 140.30999999999997 195.68000000000004 C 141.30999999999997 194.68000000000004 144.89 192.94000000000003 146.12999999999997 190.68000000000004 C 144.12999999999997 191.68000000000004 141.93999999999997 192.68000000000004 140.18999999999997 192.55000000000004 C 139.43999999999997 192.55000000000004 139.06999999999996 190.65000000000003 140.03999999999996 190.32000000000005 C 142.65999999999997 189.20000000000005 144.76999999999995 188.72000000000006 146.30999999999997 186.52000000000004 C 147.85 184.32000000000002 149.62999999999997 183.02000000000004 152.03999999999996 182.96000000000004 C 152.03999999999996 182.96000000000004 163.70999999999995 167.74000000000004 170.57999999999996 160.50000000000003 C 172.47999999999996 158.50000000000003 176.00999999999996 159.17000000000002 176.00999999999996 159.17000000000002 L 176.60999999999996 156.85000000000002 C 176.60999999999996 156.85000000000002 200.17999999999995 154.05 211.14999999999995 157.69000000000003 C 211 151 214 142.2 224.4 142.2 C 229.77 142.2 237.66 146.92999999999998 238.72 152.69 C 239.05 154.47 238.03 155.69 237.48 157.87 C 236.54999999999998 161.28 237.84 165.01 237.48 166.19 C 237.17999999999998 167.19 236.06 167.09 235.13 168.42 C 234.29405204919317 169.71355434980063 233.56816997523916 171.07500137329964 232.96 172.49 L 231.54000000000002 175.68999999999997 L 224.19000000000003 175.14999999999998 C 221.51000000000002 180.93999999999997 215.99000000000004 192.77999999999997 214.06000000000003 204.47999999999996 C 219.85000000000002 204.98999999999995 245.98000000000002 208.75999999999996 245.98000000000002 208.75999999999996 L 246.61 210.89999999999995 C 246.61 210.89999999999995 257.61 212.22999999999996 266.61 216.50999999999996 C 268.61 216.98999999999995 273.69 216.23999999999995 277.01 217.77999999999997 C 277.25 217.62999999999997 277.78999999999996 217.08999999999997 278.01 216.93999999999997 C 289.77 220.55999999999997 299.46999999999997 226.70999999999998 310.84 229.44999999999996 C 310.84 229.44999999999996 316.11999999999995 230.74999999999997 317.91999999999996 231.10999999999996 C 320.91566217559546 231.69274264155905 323.94495297975254 232.08685103724875 326.98999999999995 232.28999999999996 C 330.63999999999993 232.55999999999997 332.65999999999997 232.49999999999997 335.30999999999995 232.64999999999998 C 337.17999999999995 232.76999999999998 339.46999999999997 232.46999999999997 340.21999999999997 235.20999999999998" stroke-linecap="round" />
</g>
</svg>