<?xml version="1.0" encoding="UTF-8" standalone="no" ?>
<!DOCTYPE svg PUBLIC "-//W3C//DTD SVG 1.1//EN" "http://www.w3.org/Graphics/SVG/1.1/DTD/svg11.dtd">
<svg xmlns="http://www.w3.org/2000/svg" xmlns:xlink="http://www.w3.org/1999/xlink" version="1.1" width="1080" height="1080" viewBox="0 0 1080 1080" xml:space="preserve">
<desc>Created with Fabric.js 5.2.4</desc>
<defs>
</defs>
<g transform="matrix(1 0 0 1 540 540)" id="97d91aa4-fce3-437d-b6ad-05e16642fd38"  >
<rect style="stroke: none; stroke-width: 1; stroke-dasharray: none; stroke-linecap: butt; stroke-dashoffset: 0; stroke-linejoin: miter; stroke-miterlimit: 4; fill: rgb(255,255,255); fill-rule: nonzero; opacity: 1; visibility: hidden;" vector-effect="non-scaling-stroke"  x="-540" y="-540" rx="0" ry="0" width="1080" height="1080" />
</g>
<g transform="matrix(1 0 0 1 540 540)" id="c57aeb09-3a31-4748-9c55-1a96b3055c68"  >
</g>
<g transform="matrix(1.86 0 0 1.86 516.47 190.94)"  >
<path style="stroke: rgb(255,255,255); stroke-width: 0.5; stroke-dasharray: none; stroke-linecap: butt; stroke-dashoffset: 0; stroke-linejoin: round; stroke-miterlimit: 4; fill: rgb(255,255,255); fill-rule: evenodd; opacity: 1;" vector-effect="non-scaling-stroke"  transform=" translate(-600.26, -315.75)" d="M 524.89961 362.01396 C 579.7782500000001 331.67776 636.07069 327.75464 687.9772300000001 341.90785 C 690.2062800000001 324.1748 691.4705100000001 308.70984 701.30915 287.37976 C 688.27107 296.85767999999996 679.9125700000001 307.59758 670.3210200000001 319.20421999999996 L 667.0889000000001 269.74323999999996 L 625.45486 316.00651999999997 L 596.9560100000001 269.4874 L 579.4277200000001 321.51149 L 528.4760900000001 285.54476 L 537.0508500000001 335.58 C 525.35413 325.87079 512.3057000000001 316.16085 499.21472000000006 310.75738 C 509.27193000000005 324.0095 519.05898 342.31853 524.89961 362.01396 z" stroke-linecap="round" />
</g>
<g transform="matrix(1.86 0 0 1.86 540 630.51)"  >
<path style="stroke: rgb(255,255,255); stroke-width: 0.5; stroke-dasharray: none; stroke-linecap: butt; stroke-dashoffset: 0; stroke-linejoin: round; stroke-miterlimit: 4; fill: rgb(255,255,255); fill-rule: evenodd; opacity: 1;" vector-effect="non-scaling-stroke"  transform=" translate(-613.56, -551.4)" d="M 737.23967 382.97836 C 722.72154 370.91649 708.1356800000001 360.3875 676.0894000000001 352.50282 C 678.9886100000001 358.84319 681.38868 366.88527 681.35878 375.26741 C 673.0870600000001 366.45495 663.0532000000001 355.51673 650.79148 349.02085999999997 C 610.30225 343.71768 568.6602 353.87735 536.03982 370.3114 C 549.87019 371.91764 560.7678099999999 382.68197 564.443 394.563 C 525.38077 367.32538999999997 502.95351 406.60083 525.57332 445.71727999999996 C 501.26822 434.12778999999995 500.13512 405.8853 507.54168 387.31913 C 489.29418999999996 401.17211 461.40682 427.88624999999996 444.02813 464.07178999999996 L 466.33372999999995 467.21923999999996 C 439.37657999999993 498.92981 425.8004199999999 544.61024 423.16601999999995 571.4595099999999 L 459.4593899999999 559.6971899999999 C 447.96870999999993 601.3120999999999 457.1690699999999 666.0866199999998 471.8258399999999 689.7347499999998 C 494.4772299999999 671.9166899999999 512.6459299999999 649.6187799999999 531.4462699999999 621.3207499999999 C 543.3633299999999 658.9614899999999 541.22003 698.1222799999998 531.9493299999999 738.0535899999999 C 584.8843199999999 768.0138699999999 650.7675099999999 755.8728799999999 693.9390999999999 723.3318199999999 C 695.77702 731.0405499999998 697.02924 734.6551899999998 700.6319299999999 751.4084999999999 C 753.0250699999999 715.1205199999999 770.7975799999999 670.7248799999999 775.8856399999999 627.6810999999999 L 792.9271199999998 646.5119699999999 C 815.74008 572.83451 802.15117 512.96204 761.62119 454.968 L 759.94732 468.49418000000003 C 755.23828 462.59017 747.52817 455.40426 743.93505 450.89122000000003 C 743.3719900000001 450.18401000000006 743.51151 449.78302 743.14301 449.20829000000003 C 745.06186 448.03828000000004 748.60984 446.37498000000005 749.54295 443.8484 C 749.15761 440.33181 745.08084 431.26210000000003 742.06935 429.574 C 734.56094 430.27724 728.53733 436.84324000000004 728.4875999999999 439.24919 C 724.58552 435.56324 720.8998999999999 431.4857 709.5240299999999 427.28988 C 714.6280499999999 432.45508 719.5315699999999 440.38435999999996 723.1356199999999 447.42521999999997 C 730.6199499999999 452.9145 743.1458999999999 463.43863999999996 752.48552 473.03173 L 750.6849699999999 474.84734 C 740.4423299999999 466.81716 713.0053599999999 467.50028999999995 697.91172 475.12005999999997 C 690.5637399999999 466.31489 682.0535299999999 456.53490999999997 670.1327 445.74753 C 667.23318 440.78841 666.96467 431.92615 676.20287 424.26311999999996 C 665.9997199999999 425.17184999999995 661.7535799999999 429.58469999999994 656.94704 433.66790999999995 C 649.80574 428.2828999999999 640.4648500000001 422.68641999999994 625.31967 418.3806599999999 C 613.45229 420.7902899999999 599.1337199999999 428.39483999999993 593.6166999999999 435.0583299999999 C 607.46377 442.4651599999999 611.6904999999999 444.7026299999999 620.09682 445.2943999999999 C 632.43533 446.16296999999986 643.16986 443.3628399999999 651.05148 448.4060299999999 C 660.83449 457.1009799999999 679.15982 473.3744599999999 681.76 480.76799999999986 C 665.92206 471.69152999999983 642.20152 476.4887899999999 615.83266 475.11478999999986 C 590.89887 472.1319599999999 577.15841 453.68241999999987 576.8982100000001 438.8247299999999 L 559.17713 436.02949999999987 C 569.14504 422.3430699999999 581.76598 416.2550399999999 591.0832 412.9912599999999 L 581.3538 404.9385099999999 C 596.93652 391.5389299999999 621.1734 380.7950899999999 645.8408999999999 378.6590099999999 C 662.9385 387.1149499999999 677.5891099999999 396.3752999999999 687.6366599999999 404.6599599999999 C 692.1780099999999 397.0749199999999 692.8403799999999 388.8307499999999 693.3993399999999 383.4301399999999 C 712.8909399999999 392.4033499999999 734.65792 407.7823999999999 750.5794699999999 423.98057999999986 C 744.1947199999998 412.33354999999983 739.3539499999999 398.89589999999987 737.2396699999999 382.97839999999985 z M 661.08186 565.41863 C 653.60222 551.07473 646.28098 534.83457 637.69265 521.18122 C 654.29561 509.28612000000004 670.00585 496.95741000000004 696.9236699999999 490.07238000000007 C 702.6081499999999 494.79140000000007 710.9746099999999 500.4523900000001 722.9112399999999 504.79356000000007 L 722.8948399999999 533.1473000000001 C 705.96791 544.7438500000001 689.0504299999999 563.64011 661.0818199999999 565.4186300000001 z M 717.449 560.2056 L 737.94801 560.1397 C 741.4180799999999 563.4017399999999 748.65301 574.47128 749.1712399999999 583.0957999999999 C 747.5596899999999 595.3297799999999 738.0725299999999 617.8237799999999 721.3969999999999 626.4098399999999 C 721.92422 615.9946199999999 720.7284699999999 602.5113999999999 718.63442 595.0058499999999 C 709.11876 605.72102 693.6286699999999 610.5442499999999 685.6442 612.3170099999999 C 682.32513 603.4678799999999 676.88172 593.6954199999999 671.57367 585.6897399999999 C 685.8536799999999 582.7261599999999 703.92236 572.2421299999999 717.449 560.2056399999999 z M 757.4549999999999 491.20491 C 770.9518899999999 519.81017 768.0485799999999 547.23962 758.57435 561.2959999999999 C 753.9608499999999 550.7372899999999 745.10181 540.1703899999999 737.58548 533.5187099999999 L 737.89257 505.74202999999994 C 746.43351 501.1447099999999 752.25668 496.32107999999994 757.4549999999999 491.2049099999999 z" stroke-linecap="round" />
</g>
</svg>