<?xml version="1.0" encoding="UTF-8" standalone="no" ?>
<!DOCTYPE svg PUBLIC "-//W3C//DTD SVG 1.1//EN" "http://www.w3.org/Graphics/SVG/1.1/DTD/svg11.dtd">
<svg xmlns="http://www.w3.org/2000/svg" xmlns:xlink="http://www.w3.org/1999/xlink" version="1.1" width="1080" height="1080" viewBox="0 0 1080 1080" xml:space="preserve">
<desc>Created with Fabric.js 5.2.4</desc>
<defs>
</defs>
<g transform="matrix(1 0 0 1 540 540)" id="8f4551fa-7ed8-4d1b-8808-eb37321a9a12"  >
<rect style="stroke: none; stroke-width: 1; stroke-dasharray: none; stroke-linecap: butt; stroke-dashoffset: 0; stroke-linejoin: miter; stroke-miterlimit: 4; fill: rgb(255,255,255); fill-rule: nonzero; opacity: 1; visibility: hidden;" vector-effect="non-scaling-stroke"  x="-540" y="-540" rx="0" ry="0" width="1080" height="1080" />
</g>
<g transform="matrix(1 0 0 1 540 540)" id="933fcf9b-e1ef-4a68-8079-3de7b70e93d1"  >
</g>
<g transform="matrix(0.55 0 0 0.55 156.2 523.55)"  >
<path style="stroke: rgb(255,255,255); stroke-width: 0.5; stroke-dasharray: none; stroke-linecap: butt; stroke-dashoffset: 0; stroke-linejoin: miter; stroke-miterlimit: 4; fill: rgb(255,255,255); fill-rule: nonzero; opacity: 1;" vector-effect="non-scaling-stroke"  transform=" translate(-924.46, -432.75)" d="M 900.30189 460.5 L 900.30189 514 L 869.5999999999999 514 L 869.5999999999999 351.5 L 911.0090799999999 351.5 C 938.3534999999999 351.84467 947.2673699999999 355.07243 959.08111 362.97287 C 970.9687 370.79948 979.33264 387.99654 979.32519 404.68345 C 979.30859 441.90229 956.36895 460.78681 913.37084 460.5 z M 900.30189 431.5 L 915.82029 431.5 C 932.97734 431.63012 947.27925 425.17254 947.4003 405.63474 C 947.17217 393.64223 940.27769 382.2457 919.02123 381 L 900.30189 381 z" stroke-linecap="round" />
</g>
<g transform="matrix(0.55 0 0 0.55 210.69 539.01)"  >
<path style="stroke: rgb(255,255,255); stroke-width: 0.5; stroke-dasharray: none; stroke-linecap: butt; stroke-dashoffset: 0; stroke-linejoin: miter; stroke-miterlimit: 4; fill: rgb(255,255,255); fill-rule: nonzero; opacity: 1;" vector-effect="non-scaling-stroke"  transform=" translate(-1021.95, -460.25)" d="M 1053.9 434.91155 C 1035.2315 429.74800999999997 1019.7902000000001 439.33750999999995 1018.4782000000001 457.27545 L 1018.4782000000001 514 L 990.0000000000001 514 L 990.0000000000001 407.56327 L 1014.9780000000001 407.56327 L 1018.2937000000001 423.73954 C 1026.0009 409.52783999999997 1035.9713000000002 404.02223 1053.9 407.50966999999997 z" stroke-linecap="round" />
</g>
<g transform="matrix(0.55 0 0 0.55 260.33 539.3)"  >
<path style="stroke: rgb(255,255,255); stroke-width: 0.5; stroke-dasharray: none; stroke-linecap: butt; stroke-dashoffset: 0; stroke-linejoin: round; stroke-miterlimit: 4; fill: rgb(255,255,255); fill-rule: nonzero; opacity: 1;" vector-effect="non-scaling-stroke"  transform=" translate(-1111.08, -460.79)" d="M 1165.073 469.70098 L 1086.2087000000001 469.70098 C 1086.2257000000002 480.92843 1098.0915000000002 492.16604 1113.1918 492.12258 C 1130.1608 491.54746 1136.726 485.12757000000005 1142.6643000000001 479.18927 L 1159.6573 496.96329000000003 C 1152.9588 503.33577 1140.1979000000001 515.3405700000001 1115.6234000000002 517.0659400000001 C 1078.9359000000002 516.66528 1056.7955000000002 492.4414100000001 1056.4702000000002 461.8535800000001 C 1057.3795000000002 427.9497600000001 1081.9069000000002 404.93383000000006 1113.3145000000002 404.5060000000001 C 1133.3963 404.6351700000001 1152.7709000000002 416.6985800000001 1160.8832000000002 435.67847000000006 C 1165.5397000000003 446.52785000000006 1166.5154000000002 459.64540000000005 1165.0730000000003 469.7009800000001 z M 1086.1508000000001 449.92671 L 1137.795 449.92671 C 1135.4850000000001 439.61474000000004 1125.8882 429.04956000000004 1112.0062 429.28266 C 1097.9161000000001 429.51924 1087.7033000000001 439.42304 1086.1508000000001 449.92671 z" stroke-linecap="round" />
</g>
<g transform="matrix(0.55 0 0 0.55 341.17 538.37)"  >
<path style="stroke: rgb(255,255,255); stroke-width: 0.5; stroke-dasharray: none; stroke-linecap: butt; stroke-dashoffset: 0; stroke-linejoin: miter; stroke-miterlimit: 4; fill: rgb(255,255,255); fill-rule: nonzero; opacity: 1;" vector-effect="non-scaling-stroke"  transform=" translate(-1256.16, -459.11)" d="M 1305.907 513.90485 L 1305.907 450.8604 C 1305.1363 436.99030000000005 1295.395 430.99868000000004 1287.7718 431.54659000000004 C 1278.0917 432.24235000000004 1270.5307 439.61073000000005 1269.9266 451.45275000000004 L 1269.9266 513.90485 L 1241.9666 513.90485 L 1241.9666 446.49866000000003 C 1240.2957999999999 436.56065 1231.3339 431.11722000000003 1223.8876 431.75015 C 1215.0402 432.50217000000004 1207.3716 437.60153 1206.586 447.78827 L 1206.586 513.90485 L 1178.026 513.90485 L 1178.026 407.225 L 1203.8625000000002 407.225 L 1206.7008 420.79249000000004 C 1213.8819 409.71369000000004 1221.3591000000001 404.41582000000005 1233.3823 404.31756000000007 C 1250.2563 404.1796500000001 1257.6484 412.6537800000001 1264.5546 421.5892600000001 C 1273.3734 409.1508400000001 1281.1590999999999 404.9777000000001 1297.8515 404.31756000000007 C 1322.2609 405.52616000000006 1334.8897 425.07948000000005 1334.267 446.83418000000006 L 1334.267 513.9048500000001 z" stroke-linecap="round" />
</g>
<g transform="matrix(0.55 0 0 0.55 401.82 539.28)"  >
<path style="stroke: rgb(255,255,255); stroke-width: 0.5; stroke-dasharray: none; stroke-linecap: butt; stroke-dashoffset: 0; stroke-linejoin: miter; stroke-miterlimit: 4; fill: rgb(255,255,255); fill-rule: nonzero; opacity: 1;" vector-effect="non-scaling-stroke"  transform=" translate(-1364.36, -460.71)" d="M 1349.658 407.525 L 1379.0529999999999 407.525 L 1379.0529999999999 513.90485 L 1349.658 513.90485 z" stroke-linecap="round" />
</g>
<g transform="matrix(0.55 0 0 0.55 589.23 523.41)"  >
<path style="stroke: rgb(255,255,255); stroke-width: 0.5; stroke-dasharray: none; stroke-linecap: butt; stroke-dashoffset: 0; stroke-linejoin: miter; stroke-miterlimit: 4; fill: rgb(255,255,255); fill-rule: nonzero; opacity: 1;" vector-effect="non-scaling-stroke"  transform=" translate(-919.32, -610.99)" d="M 869.107 531.63926 L 901.34105 531.63926 L 901.34105 660.9580000000001 L 969.52517 660.9580000000001 L 969.52517 690.33112 L 869.107 690.33112 z" stroke-linecap="round" />
</g>
<g transform="matrix(0.55 0 0 0.55 720.23 538.34)"  >
<path style="stroke: rgb(255,255,255); stroke-width: 0.5; stroke-dasharray: none; stroke-linecap: butt; stroke-dashoffset: 0; stroke-linejoin: miter; stroke-miterlimit: 4; fill: rgb(255,255,255); fill-rule: nonzero; opacity: 1;" vector-effect="non-scaling-stroke"  transform=" translate(-1154.14, -637.56)" d="M 1186.094 690.33112 L 1182.884 677.1277200000001 C 1172.7711 689.31028 1160.8414 693.8502100000001 1146.1112 693.2157300000001 C 1132.7469 692.6400900000001 1119.0946000000001 685.7373100000001 1109.0934 673.1051800000001 C 1100.6601 662.7624900000002 1096.4435 650.1921300000001 1096.4435 635.3941200000002 C 1096.4435 620.7552300000002 1103.3706000000002 606.2790700000002 1115.4413000000002 594.8840200000002 C 1124.8886000000002 586.6085200000002 1138.0334000000003 581.7565700000002 1150.8078000000003 581.8499000000002 C 1163.0408000000002 581.9393000000001 1173.4749000000002 585.4286900000002 1182.5910000000003 597.0592300000002 L 1185.4940000000004 583.3380000000002 L 1211.8448000000003 583.3380000000002 L 1211.8448000000003 690.3311200000002 z M 1155.6157 608.5471100000001 C 1139.2277000000001 609.6281700000001 1128.2222000000002 619.6064500000001 1127.2396 637.0467800000001 C 1127.2126 645.3267200000001 1129.9377000000002 653.5475400000001 1136.6125000000002 659.1770000000001 C 1142.6069000000002 663.7977400000001 1149.6767000000002 666.1710600000001 1156.6428 665.8257100000002 C 1172.2624 664.7449500000001 1182.6737 652.6668600000002 1182.8478 638.2178500000002 C 1183.0586 621.7777100000002 1172.9474 609.5507100000002 1155.6157 608.5471100000002 z" stroke-linecap="round" />
</g>
<g transform="matrix(0.55 0 0 0.55 859.89 538.8)"  >
<path style="stroke: rgb(255,255,255); stroke-width: 0.5; stroke-dasharray: none; stroke-linecap: butt; stroke-dashoffset: 0; stroke-linejoin: miter; stroke-miterlimit: 4; fill: rgb(255,255,255); fill-rule: nonzero; opacity: 1;" vector-effect="non-scaling-stroke"  transform=" translate(-1404.42, -638.38)" d="M 1351.9356 583.538 L 1382.164 583.538 L 1382.164 635.10601 C 1382.164 642.18678 1381.4738 651.02951 1386.1473 657.07862 C 1390.9004 662.86595 1397.0382000000002 665.40825 1402.366 665.57739 C 1410.7839999999999 665.84464 1415.613 663.32488 1419.1677 660.38922 C 1426.4203 654.7527 1427.2323999999999 644.02071 1427.268 635.82204 L 1427.268 583.538 L 1456.8963 583.538 L 1456.8963 645.6078200000001 C 1456.8963 659.35107 1451.3232 670.7011200000001 1441.4347 680.56907 C 1431.808 689.08191 1418.6855 693.8834 1402.2966000000001 693.141 C 1385.9289 692.39955 1375.5906000000002 687.7099999999999 1366.3885 679.17418 C 1358.6970000000001 672.0395599999999 1351.9356 659.7117 1351.9356 643.10171 z" stroke-linecap="round" />
</g>
<g transform="matrix(0.55 0 0 0.55 402.11 491.37)"  >
<path style="stroke: rgb(255,255,255); stroke-width: 0.5; stroke-dasharray: none; stroke-linecap: butt; stroke-dashoffset: 0; stroke-linejoin: miter; stroke-miterlimit: 4; fill: rgb(255,255,255); fill-rule: nonzero; opacity: 1;" vector-effect="non-scaling-stroke"  transform=" translate(-1364.92, -374.59)" d="M 1364.9178 356.27108 C 1369.9719 356.27108 1374.2679 358.08213 1377.8057 361.70425 C 1381.4279 365.24213 1383.2389999999998 369.53813 1383.2389999999998 374.59226 C 1383.2389999999998 379.64638 1381.4279 383.9845 1377.8057 387.60662 C 1374.2678999999998 391.1445 1369.9718999999998 392.91345 1364.9178 392.91345 C 1359.8636 392.91345 1355.5256 391.1445 1351.9034 387.60662 C 1348.3654999999999 383.9845 1346.5964999999999 379.64638 1346.5964999999999 374.59226 C 1346.5964999999999 369.53813 1348.3654999999999 365.24213000000003 1351.9034 361.70425 C 1355.5256 358.08213 1359.8636 356.27108 1364.9178 356.27108 z" stroke-linecap="round" />
</g>
<g transform="matrix(0.55 0 0 0.55 502.5 539.01)"  >
<path style="stroke: rgb(255,255,255); stroke-width: 0.5; stroke-dasharray: none; stroke-linecap: butt; stroke-dashoffset: 0; stroke-linejoin: miter; stroke-miterlimit: 4; fill: rgb(255,255,255); fill-rule: nonzero; opacity: 1;" vector-effect="non-scaling-stroke"  transform=" translate(-1544.95, -460.25)" d="M 1576.9 434.91155 C 1558.2315 429.74800999999997 1542.7902000000001 439.33750999999995 1541.4782 457.27545 L 1541.4782 514 L 1513 514 L 1513 407.56327 L 1537.978 407.56327 L 1541.2937000000002 423.73954 C 1549.0009000000002 409.52783999999997 1558.9713000000002 404.02223 1576.9 407.50966999999997 z" stroke-linecap="round" />
</g>
<g transform="matrix(0.55 0 0 0.55 446.97 539.3)"  >
<path style="stroke: rgb(255,255,255); stroke-width: 0.5; stroke-dasharray: none; stroke-linecap: butt; stroke-dashoffset: 0; stroke-linejoin: round; stroke-miterlimit: 4; fill: rgb(255,255,255); fill-rule: nonzero; opacity: 1;" vector-effect="non-scaling-stroke"  transform=" translate(-1445.58, -460.79)" d="M 1499.573 469.70098 L 1420.7087000000001 469.70098 C 1420.7257000000002 480.92843 1432.5915000000002 492.16604 1447.6918 492.12258 C 1464.6608 491.54746 1471.226 485.12757000000005 1477.1643000000001 479.18927 L 1494.1573 496.96329000000003 C 1487.4588 503.33577 1474.6979000000001 515.3405700000001 1450.1234000000002 517.0659400000001 C 1413.4359000000002 516.66528 1391.2955000000002 492.4414100000001 1390.9702000000002 461.8535800000001 C 1391.8795000000002 427.9497600000001 1416.4069000000002 404.93383000000006 1447.8145000000002 404.5060000000001 C 1467.8963 404.6351700000001 1487.2709000000002 416.6985800000001 1495.3832000000002 435.67847000000006 C 1500.0397000000003 446.52785000000006 1501.0154000000002 459.64540000000005 1499.5730000000003 469.7009800000001 z M 1420.6508000000001 449.92671 L 1472.295 449.92671 C 1469.9850000000001 439.61474000000004 1460.3882 429.04956000000004 1446.5062 429.28266 C 1432.4161000000001 429.51924 1422.2033000000001 439.42304 1420.6508000000001 449.92671 z" stroke-linecap="round" />
</g>
<g transform="matrix(0.55 0 0 0.55 790.7 552.24)"  >
<path style="stroke: rgb(255,255,255); stroke-width: 0.5; stroke-dasharray: none; stroke-linecap: butt; stroke-dashoffset: 0; stroke-linejoin: miter; stroke-miterlimit: 4; fill: rgb(255,255,255); fill-rule: nonzero; opacity: 1;" vector-effect="non-scaling-stroke"  transform=" translate(-1280.46, -662.67)" d="M 1243.8327 701.18096 C 1254.384 710.52597 1262.5905 714.01832 1269.1247999999998 715.09061 C 1289.8877999999997 718.49786 1312.3675999999998 710.66077 1307.5685999999998 680.93671 C 1301.9142 686.7643999999999 1296.5403999999999 689.94968 1290.7404999999999 691.6161599999999 C 1264.9958 696.7024499999999 1247.1535 687.5148599999999 1235.3938999999998 673.1051799999999 C 1226.9605999999999 662.76249 1222.744 650.1921299999999 1222.744 635.3941199999999 C 1222.744 620.75523 1229.6711 606.2790699999999 1241.7418 594.88402 C 1251.1891 586.60852 1264.3339 581.75657 1277.1083 581.8498999999999 C 1289.3413 581.9392999999999 1299.7754 585.42869 1308.8915000000002 597.05923 L 1311.7945000000002 583.338 L 1338.1453000000001 583.338 L 1338.1453000000001 682.0757 C 1339.2667000000001 729.22277 1304.5309000000002 743.73101 1276.5889000000002 743.48529 C 1259.3252000000002 743.3334699999999 1241.5266000000001 736.27189 1227.4538000000002 724.15031 z M 1281.9162 608.54711 C 1265.5282 609.62817 1254.5227 619.60645 1253.5401 637.04678 C 1253.5131 645.32672 1256.2382 653.54754 1262.913 659.177 C 1268.9074 663.79774 1275.9772 666.17106 1282.9433 665.8257100000001 C 1298.5629 664.74495 1308.9741999999999 652.66686 1309.1482999999998 638.2178500000001 C 1309.3591 621.7777100000001 1299.2478999999998 609.5507100000001 1281.9162 608.5471100000001 z" stroke-linecap="round" />
</g>
<g transform="matrix(0.55 0 0 0.55 925.74 538.07)"  >
<path style="stroke: rgb(255,255,255); stroke-width: 0.5; stroke-dasharray: none; stroke-linecap: butt; stroke-dashoffset: 0; stroke-linejoin: round; stroke-miterlimit: 4; fill: rgb(255,255,255); fill-rule: nonzero; opacity: 1;" vector-effect="non-scaling-stroke"  transform=" translate(-1522.44, -637.06)" d="M 1576.4338 645.97304 L 1497.5695 645.97304 C 1497.5865000000001 657.20049 1509.4523000000002 668.4381 1524.5526 668.39464 C 1541.5216 667.81952 1548.0868 661.39963 1554.0251 655.46133 L 1571.0181 673.2353499999999 C 1564.3196 679.6078299999999 1551.5587 691.61263 1526.9842 693.338 C 1490.2967 692.93734 1468.1563 668.7134699999999 1467.8310000000001 638.12564 C 1468.7403000000002 604.22182 1493.2677 581.20589 1524.6753 580.77806 C 1544.7571 580.90723 1564.1317000000001 592.97064 1572.2440000000001 611.95053 C 1576.9005000000002 622.79991 1577.8762000000002 635.91746 1576.4338000000002 645.97304 z M 1497.5116 626.19877 L 1549.1558 626.19877 C 1546.8458 615.8868 1537.249 605.3216199999999 1523.367 605.55472 C 1509.2769 605.7913 1499.0641 615.6951 1497.5116 626.19877 z" stroke-linecap="round" />
</g>
<g transform="matrix(0.55 0 0 0.55 651.48 538.07)"  >
<path style="stroke: rgb(255,255,255); stroke-width: 0.5; stroke-dasharray: none; stroke-linecap: butt; stroke-dashoffset: 0; stroke-linejoin: round; stroke-miterlimit: 4; fill: rgb(255,255,255); fill-rule: nonzero; opacity: 1;" vector-effect="non-scaling-stroke"  transform=" translate(-1030.94, -637.06)" d="M 1084.9338 645.97304 L 1006.0695000000001 645.97304 C 1006.0865000000001 657.20049 1017.9523 668.4381 1033.0526 668.39464 C 1050.0216 667.81952 1056.5868 661.39963 1062.5251 655.46133 L 1079.5181 673.2353499999999 C 1072.8196 679.6078299999999 1060.0587 691.61263 1035.4842 693.338 C 998.7967000000001 692.93734 976.6563000000001 668.7134699999999 976.3310000000001 638.12564 C 977.2403000000002 604.22182 1001.7677000000001 581.20589 1033.1753 580.77806 C 1053.2571 580.90723 1072.6317000000001 592.97064 1080.7440000000001 611.95053 C 1085.4005000000002 622.79991 1086.3762000000002 635.91746 1084.9338000000002 645.97304 z M 1006.0116 626.19877 L 1057.6558 626.19877 C 1055.3458 615.8868 1045.749 605.3216199999999 1031.867 605.55472 C 1017.7769 605.7913 1007.5640999999999 615.6951 1006.0115999999999 626.19877 z" stroke-linecap="round" />
</g>
</svg>