<svg xmlns="http://www.w3.org/2000/svg" width="294" height="273" fill="none" viewBox="0 0 294 273">
  <mask id="a" fill="#fff">
    <path d="M8.17 107.19 82.35 0h71.77L61.77 131.42h59.96l-93.26 47.54-18.78-23.93C3.03 146.25 0 139.58 0 130.5c0-8.18 3.03-16.05 8.18-23.32"/>
  </mask>
  <path fill="#fff" d="M8.17 107.19 82.35 0h71.77L61.77 131.42h59.96l-93.26 47.54-18.78-23.93C3.03 146.25 0 139.58 0 130.5c0-8.18 3.03-16.05 8.18-23.32"/>
  <path fill="#000" d="M82.35 0v-1h-.524l-.298.43.822.57Zm71.77 0 .818.575L156.045-1h-1.925v1ZM61.77 131.42l-.818-.575-1.107 1.575h1.925v-1Zm59.96 0 .454.891-.454-1.891v1Zm-93.26 47.54-.787.617.508.648.733-.374-.454-.891ZM9.69 155.03l-.797.604.005.007.005.006.787-.617Zm-1.52-47.84.822.569L83.172.569 82.35 0l-.822-.57-74.18 107.191.822.569ZM82.35 0v1h71.77v-2H82.35v1Zm71.77 0-.818-.575-92.35 131.42.818.575.818.575L154.938.575 154.12 0ZM61.77 131.42v1h59.96v-2H61.77v1Zm59.96 0-.454-.891-93.26 47.54.454.891.454.891 93.26-47.54-.454-.891Zm-93.26 47.54.787-.617-18.78-23.93-.787.617-.787.617 18.78 23.93.787-.617ZM9.69 155.03l.797-.604C3.9 145.743 1 139.282 1 130.5h-2c0 9.378 3.16 16.257 9.893 25.134l.797-.604ZM0 130.5h1c0-7.924 2.934-15.596 7.996-22.742l-.816-.578-.816-.578C2.126 113.996-1 122.064-1 130.5h1Z" mask="url(#a)"/>
  <mask id="b" fill="#fff">
    <path d="M69.02 218.01c0-7.57 3.03-15.75 8.48-23.62L214.07 0h79.04L139.89 218.01h69.04l-107.19 54.5-23.02-29.37c-6.36-8.18-9.69-16.35-9.69-25.14"/>
  </mask>
  <path fill="#fff" d="M69.02 218.01c0-7.57 3.03-15.75 8.48-23.62L214.07 0h79.04L139.89 218.01h69.04l-107.19 54.5-23.02-29.37c-6.36-8.18-9.69-16.35-9.69-25.14"/>
  <path fill="#000" d="m77.5 194.39-.818-.575-.004.006.822.569ZM214.07 0v-1h-.52l-.298.425.818.575Zm79.04 0 .818.575L295.035-1h-1.925v1ZM139.89 218.01l-.818-.575-1.107 1.575h1.925v-1Zm69.04 0 .453.891-.453-1.891v1Zm-107.19 54.5-.787.617.507.647.733-.373-.453-.891Zm-23.02-29.37-.79.614.003.003.787-.617Zm-9.7-25.13h1c0-7.309 2.93-15.293 8.302-23.051l-.822-.569-.822-.569c-5.528 7.982-8.658 16.358-8.658 24.189h1Zm8.48-23.62.818.575L214.888.575 214.07 0l-.818-.575-136.57 194.39.818.575ZM214.07 0v1h79.04v-2h-79.04v1Zm79.04 0-.818-.575-153.22 218.01.818.575.818.575L293.928.575 293.11 0ZM139.89 218.01v1h69.04v-2h-69.04v1Zm69.04 0-.453-.891-107.19 54.5.453.891.453.891 107.19-54.5-.453-.891Zm-107.19 54.5.787-.617-23.02-29.37-.787.617-.787.617 23.02 29.37.787-.617Zm-23.02-29.37.79-.614c-6.263-8.054-9.48-16.014-9.48-24.526h-2c0 9.068 3.443 17.448 9.9 25.754l.79-.614Z" mask="url(#b)"/>
</svg>
