<?xml version="1.0" encoding="UTF-8" standalone="no" ?>
<!DOCTYPE svg PUBLIC "-//W3C//DTD SVG 1.1//EN" "http://www.w3.org/Graphics/SVG/1.1/DTD/svg11.dtd">
<svg xmlns="http://www.w3.org/2000/svg" xmlns:xlink="http://www.w3.org/1999/xlink" version="1.1" width="1080" height="1080" viewBox="0 0 1080 1080" xml:space="preserve">
<desc>Created with Fabric.js 5.2.4</desc>
<defs>
</defs>
<g transform="matrix(1 0 0 1 540 540)" id="9428df01-c01a-424a-8804-8573fce75070"  >
<rect style="stroke: none; stroke-width: 1; stroke-dasharray: none; stroke-linecap: butt; stroke-dashoffset: 0; stroke-linejoin: miter; stroke-miterlimit: 4; fill: rgb(255,255,255); fill-rule: nonzero; opacity: 1; visibility: hidden;" vector-effect="non-scaling-stroke"  x="-540" y="-540" rx="0" ry="0" width="1080" height="1080" />
</g>
<g transform="matrix(1 0 0 1 540 540)" id="9d323000-1362-4d79-98a7-53c6c8a23b77"  >
</g>
<g transform="matrix(1 0 0 1 540 540)"  >
<g style="" vector-effect="non-scaling-stroke"   >
		<g transform="matrix(1 0 0 1 -228.32 0)"  >
<path style="stroke: none; stroke-width: 1; stroke-dasharray: none; stroke-linecap: butt; stroke-dashoffset: 0; stroke-linejoin: miter; stroke-miterlimit: 4; fill: rgb(255,255,255); fill-rule: nonzero; opacity: 1;" vector-effect="non-scaling-stroke"  transform=" translate(-109.67, -111.5)" d="M 73 146.32 L 73 49.64999999999999 L 99.51 49.64999999999999 L 99.51 148.62 L 146.34 148.62 L 146.34 173.36 L 88.37 173.36 L 77.94 160.46 C 74.41 155.86 73 151.62 73 146.32 z" stroke-linecap="round" />
</g>
		<g transform="matrix(1 0 0 1 -129.28 0)"  >
<path style="stroke: none; stroke-width: 1; stroke-dasharray: none; stroke-linecap: butt; stroke-dashoffset: 0; stroke-linejoin: miter; stroke-miterlimit: 4; fill: rgb(255,255,255); fill-rule: nonzero; opacity: 1;" vector-effect="non-scaling-stroke"  transform=" translate(-208.72, -111.5)" d="M 160.66 153.21 L 189.29 49.640000000000015 L 219.69 49.640000000000015 C 225.35 49.640000000000015 228.88 52.29000000000001 230.47 57.95000000000002 L 256.8 153.21000000000004 C 258.04 157.45000000000005 258.21000000000004 160.28000000000003 258.21000000000004 165.76000000000005 L 258.21000000000004 173.36000000000004 L 234.70000000000005 173.36000000000004 L 225.33000000000004 135.72000000000003 L 187.33000000000004 155.16000000000003 L 182.73000000000005 173.36 L 159.22000000000006 173.36 L 159.22000000000006 165.76000000000002 C 159.25 160.28 159.42 157.45 160.66 153.21 z M 224.11 130.94 L 210.15 74.39 L 207.32 74.39 L 193.35999999999999 130.94 L 224.11 130.94 z" stroke-linecap="round" />
</g>
		<g transform="matrix(1 0 0 1 -31.09 0)"  >
<path style="stroke: none; stroke-width: 1; stroke-dasharray: none; stroke-linecap: butt; stroke-dashoffset: 0; stroke-linejoin: miter; stroke-miterlimit: 4; fill: rgb(255,255,255); fill-rule: nonzero; opacity: 1;" vector-effect="non-scaling-stroke"  transform=" translate(-306.9, -111.5)" d="M 270.23 146.32 L 270.23 49.64999999999999 L 296.74 49.64999999999999 L 296.74 148.62 L 343.57 148.62 L 343.57 173.36 L 285.6 173.36 L 275.17 160.46 C 271.65 155.86 270.23 151.62 270.23 146.32 z" stroke-linecap="round" />
</g>
		<g transform="matrix(1 0 0 1 33.86 -0.01)"  >
<path style="stroke: none; stroke-width: 1; stroke-dasharray: none; stroke-linecap: butt; stroke-dashoffset: 0; stroke-linejoin: miter; stroke-miterlimit: 4; fill: rgb(255,255,255); fill-rule: nonzero; opacity: 1;" vector-effect="non-scaling-stroke"  transform=" translate(-371.86, -111.5)" d="M 358.6 49.64 L 385.11 49.64 L 385.11 173.35 L 358.6 173.35 L 358.6 49.64 z" stroke-linecap="round" />
</g>
		<g transform="matrix(1 0 0 1 111.59 0)"  >
<path style="stroke: none; stroke-width: 1; stroke-dasharray: none; stroke-linecap: butt; stroke-dashoffset: 0; stroke-linejoin: miter; stroke-miterlimit: 4; fill: rgb(255,255,255); fill-rule: nonzero; opacity: 1;" vector-effect="non-scaling-stroke"  transform=" translate(-449.59, -111.5)" d="M 403.14 134.08 L 403.14 88.92 C 403.14 62.59 417.46 48.27 443.78999999999996 48.27 L 455.39 48.27 C 481.37 48.27 496.03999999999996 61.52 496.03999999999996 85.03 L 469.53 85.03 L 469.53 80.08 C 469.53 75.48 467.05999999999995 73.00999999999999 462.46 73.00999999999999 L 436.71999999999997 73.00999999999999 C 432.11999999999995 73.00999999999999 429.65 75.47999999999999 429.65 80.07999999999998 L 429.65 142.92 C 429.65 147.51 432.12 149.98999999999998 436.71999999999997 149.98999999999998 L 462.46 149.98999999999998 C 467.04999999999995 149.98999999999998 469.53 147.51999999999998 469.53 142.92 L 469.53 127.36999999999999 L 451.15 127.36999999999999 L 451.15 102.63 L 480.65999999999997 102.63 L 491.09 115.53 C 494.61999999999995 119.95 496.03999999999996 124.01 496.03999999999996 129.67000000000002 L 496.03999999999996 134.09 C 496.03999999999996 160.42000000000002 481.71999999999997 174.74 455.39 174.74 L 443.78999999999996 174.74 C 417.45 174.73 403.14 160.42 403.14 134.08 z" stroke-linecap="round" />
</g>
		<g transform="matrix(1 0 0 1 215.5 0)"  >
<path style="stroke: none; stroke-width: 1; stroke-dasharray: none; stroke-linecap: butt; stroke-dashoffset: 0; stroke-linejoin: miter; stroke-miterlimit: 4; fill: rgb(255,255,255); fill-rule: nonzero; opacity: 1;" vector-effect="non-scaling-stroke"  transform=" translate(-553.5, -111.5)" d="M 505.44 153.21 L 534.07 49.640000000000015 L 564.47 49.640000000000015 C 570.13 49.640000000000015 573.6600000000001 52.29000000000001 575.25 57.95000000000002 L 601.58 153.21000000000004 C 602.82 157.45000000000005 602.99 160.28000000000003 602.99 165.76000000000005 L 602.99 173.36000000000004 L 579.48 173.36000000000004 L 570.11 135.72000000000003 L 532.11 155.16000000000003 L 527.52 173.36 L 504.01 173.36 L 504.01 165.76000000000002 C 504.03 160.28 504.21 157.45 505.44 153.21 z M 568.89 130.94 L 554.93 74.39 L 552.0999999999999 74.39 L 538.1399999999999 130.94 L 568.89 130.94 z" stroke-linecap="round" />
</g>
</g>
</g>
</svg>