<?xml version="1.0" encoding="UTF-8" standalone="no" ?>
<!DOCTYPE svg PUBLIC "-//W3C//DTD SVG 1.1//EN" "http://www.w3.org/Graphics/SVG/1.1/DTD/svg11.dtd">
<svg xmlns="http://www.w3.org/2000/svg" xmlns:xlink="http://www.w3.org/1999/xlink" version="1.1" width="1080" height="1080" viewBox="0 0 1080 1080" xml:space="preserve">
<desc>Created with Fabric.js 5.2.4</desc>
<defs>
</defs>
<g transform="matrix(1 0 0 1 540 540)" id="5ab77acb-ef68-434e-b691-2f26b7a643f0"  >
</g>
<g transform="matrix(1 0 0 1 540 540)" id="948a82ff-8101-4607-a12e-3eef0ce39181"  >
<rect style="stroke: none; stroke-width: 1; stroke-dasharray: none; stroke-linecap: butt; stroke-dashoffset: 0; stroke-linejoin: miter; stroke-miterlimit: 4; fill: rgb(255,255,255); fill-rule: nonzero; opacity: 1; visibility: hidden;" vector-effect="non-scaling-stroke"  x="-540" y="-540" rx="0" ry="0" width="1080" height="1080" />
</g>
<g transform="matrix(4.86 0 0 4.86 540 478.71)"  >
<path style="stroke: rgb(255,255,255); stroke-width: 1; stroke-dasharray: none; stroke-linecap: butt; stroke-dashoffset: 0; stroke-linejoin: miter; stroke-miterlimit: 4; fill: rgb(255,255,255); fill-rule: nonzero; opacity: 1;" vector-effect="non-scaling-stroke"  transform=" translate(-86.38, -18.13)" d="M 0.206 31.455 C -0.0020000000000000018 31.25 -0.10500000000000001 30.887999999999998 0.153 30.576999999999998 L 4.079 26.083 C 4.286 25.825 4.595 25.825 4.853 26.032999999999998 C 7.178 27.891999999999996 10.329 29.647 14.047 29.647 C 17.714 29.647 19.781 27.944 19.781 25.462999999999997 C 19.781 23.397999999999996 18.541 22.107 14.357999999999999 21.538999999999998 L 12.498 21.278999999999996 C 5.37 20.3 1.393 16.943 1.393 10.745 C 1.394 4.288 6.249 0 13.84 0 C 18.488 0 22.828 1.395 25.772 3.667 C 26.081 3.875 26.133 4.082 25.875 4.442 L 22.725 9.144 C 22.517000000000003 9.401 22.259 9.454 22.001 9.297 C 19.316000000000003 7.542000000000001 16.733 6.612 13.841000000000001 6.612 C 10.741000000000001 6.612 9.14 8.213000000000001 9.14 10.434000000000001 C 9.14 12.448 10.586 13.739 14.614 14.307000000000002 L 16.474 14.567000000000002 C 23.705 15.547000000000002 27.529 18.853 27.529 25.207 C 27.529 31.559 22.829 36.257000000000005 13.737 36.257000000000005 C 8.261 36.257000000000005 2.9410000000000007 34.089000000000006 0.20500000000000007 31.455000000000005 Z M 31.608 1.084 C 31.608 0.774 31.815 0.5690000000000001 32.124 0.5690000000000001 L 54.643 0.5690000000000001 C 54.953 0.5690000000000001 55.161 0.775 55.161 1.084 L 55.161 6.611000000000001 C 55.161 6.921 54.954 7.127000000000001 54.643 7.127000000000001 L 39.51 7.127000000000001 C 39.303 7.127000000000001 39.199999999999996 7.231000000000001 39.199999999999996 7.438000000000001 L 39.199999999999996 14.411000000000001 C 39.199999999999996 14.618000000000002 39.303 14.72 39.51 14.72 L 52.111999999999995 14.72 C 52.422 14.72 52.629 14.927000000000001 52.629 15.236 L 52.629 20.712 C 52.629 21.022 52.422 21.228 52.111999999999995 21.228 L 39.51 21.228 C 39.303 21.228 39.199999999999996 21.332 39.199999999999996 21.538 L 39.199999999999996 28.821 C 39.199999999999996 29.027 39.303 29.131 39.51 29.131 L 54.643 29.131 C 54.953 29.131 55.161 29.338 55.161 29.645 L 55.161 35.173 C 55.161 35.483000000000004 54.954 35.690000000000005 54.643 35.690000000000005 L 32.124 35.690000000000005 C 31.815 35.690000000000005 31.608000000000004 35.483000000000004 31.608000000000004 35.173 L 31.608000000000004 1.084 Z M 78.609 11.466 C 78.609 8.831999999999999 76.749 7.126999999999999 73.85799999999999 7.126999999999999 L 67.66 7.126999999999999 C 67.453 7.126999999999999 67.35 7.230999999999999 67.35 7.437999999999999 L 67.35 15.547999999999998 C 67.35 15.752999999999998 67.45299999999999 15.856999999999998 67.66 15.856999999999998 L 73.858 15.856999999999998 C 76.75 15.856999999999998 78.60900000000001 14.152999999999997 78.60900000000001 11.465999999999998 Z M 79.17699999999999 35.688 C 78.713 35.688 78.55699999999999 35.535000000000004 78.40199999999999 35.172000000000004 L 72.35899999999998 22.312000000000005 L 67.66 22.312000000000005 C 67.453 22.312000000000005 67.35 22.415000000000006 67.35 22.622000000000003 L 67.35 35.172000000000004 C 67.35 35.482000000000006 67.142 35.68900000000001 66.833 35.68900000000001 L 60.272999999999996 35.68900000000001 C 59.962999999999994 35.68900000000001 59.75599999999999 35.483000000000004 59.75599999999999 35.172000000000004 L 59.75599999999999 1.084 C 59.75599999999999 0.7750000000000001 59.96399999999999 0.5680000000000001 60.272999999999996 0.5680000000000001 L 74.271 0.5680000000000001 C 81.449 0.5680000000000001 86.201 5.061 86.201 11.466 C 86.201 15.960999999999999 83.824 19.524 79.951 21.229 L 86.87299999999999 35.069 C 87.026 35.379000000000005 86.87299999999999 35.689 86.511 35.689 L 79.17699999999999 35.689 Z M 90.953 1.084 C 90.953 0.774 91.16 0.5690000000000001 91.46900000000001 0.5690000000000001 L 98.02900000000001 0.5690000000000001 C 98.33900000000001 0.5690000000000001 98.54500000000002 0.775 98.54500000000002 1.084 L 98.54500000000002 35.17400000000001 C 98.54500000000002 35.483000000000004 98.34000000000002 35.690000000000005 98.02900000000001 35.690000000000005 L 91.46900000000001 35.690000000000005 C 91.16000000000001 35.690000000000005 90.953 35.483000000000004 90.953 35.173 L 90.953 1.084 Z M 104.227 1.084 C 104.227 0.774 104.432 0.5690000000000001 104.74300000000001 0.5690000000000001 L 127.26100000000001 0.5690000000000001 C 127.57200000000002 0.5690000000000001 127.78000000000002 0.775 127.78000000000002 1.084 L 127.78000000000002 6.611000000000001 C 127.78000000000002 6.921 127.57200000000002 7.127000000000001 127.26100000000001 7.127000000000001 L 112.129 7.127000000000001 C 111.923 7.127000000000001 111.819 7.231000000000001 111.819 7.438000000000001 L 111.819 14.411000000000001 C 111.819 14.618000000000002 111.923 14.72 112.129 14.72 L 124.73100000000001 14.72 C 125.04 14.72 125.248 14.927000000000001 125.248 15.236 L 125.248 20.712 C 125.248 21.022 125.04 21.228 124.73100000000001 21.228 L 112.129 21.228 C 111.923 21.228 111.819 21.332 111.819 21.538 L 111.819 28.821 C 111.819 29.027 111.923 29.131 112.129 29.131 L 127.26100000000001 29.131 C 127.57200000000002 29.131 127.78000000000002 29.338 127.78000000000002 29.645 L 127.78000000000002 35.173 C 127.78000000000002 35.483000000000004 127.57200000000002 35.690000000000005 127.26100000000001 35.690000000000005 L 104.74300000000001 35.690000000000005 C 104.432 35.690000000000005 104.227 35.483000000000004 104.227 35.173 L 104.227 1.084 Z M 160.887 22.57 L 156.91 10.278 L 156.756 10.278 L 152.777 22.570999999999998 L 160.887 22.570999999999998 Z M 152.985 1.0839999999999996 C 153.08800000000002 0.7769999999999997 153.294 0.5689999999999996 153.656 0.5689999999999996 L 160.16500000000002 0.5689999999999996 C 160.52700000000002 0.5689999999999996 160.73200000000003 0.7769999999999996 160.83400000000003 1.0839999999999996 L 172.71300000000002 35.17400000000001 C 172.818 35.48400000000001 172.71300000000002 35.690000000000005 172.35200000000003 35.690000000000005 L 165.63800000000003 35.690000000000005 C 165.27600000000004 35.690000000000005 165.07100000000003 35.535000000000004 164.96900000000002 35.173 L 162.95300000000003 29.028000000000002 L 150.66 29.028000000000002 L 148.697 35.173 C 148.594 35.535000000000004 148.388 35.690000000000005 148.026 35.690000000000005 L 141.25900000000001 35.690000000000005 C 140.89700000000002 35.690000000000005 140.79500000000002 35.484 140.89700000000002 35.173 L 152.985 1.0840000000000032 Z" stroke-linecap="round" />
</g>
<g transform="matrix(4.86 0 0 4.86 262.72 658.04)"  >
<path style="stroke: none; stroke-width: 1; stroke-dasharray: none; stroke-linecap: butt; stroke-dashoffset: 0; stroke-linejoin: miter; stroke-miterlimit: 4; fill: rgb(0,164,69); fill-rule: nonzero; opacity: 1;" vector-effect="non-scaling-stroke"  transform=" translate(-29.3, -55.04)" d="M 0.763 48.587 L 57.838 48.587 L 57.838 61.483000000000004 L 0.763 61.483000000000004 L 0.763 48.587 Z" stroke-linecap="round" />
</g>
<g transform="matrix(4.86 0 0 4.86 540.01 658.04)"  >
<path style="stroke: none; stroke-width: 1; stroke-dasharray: none; stroke-linecap: butt; stroke-dashoffset: 0; stroke-linejoin: miter; stroke-miterlimit: 4; fill: rgb(227,227,226); fill-rule: nonzero; opacity: 1;" vector-effect="non-scaling-stroke"  transform=" translate(-86.38, -55.04)" d="M 57.84 48.587 L 114.914 48.587 L 114.914 61.483000000000004 L 57.839 61.483000000000004 L 57.839 48.587 Z" stroke-linecap="round" />
</g>
<g transform="matrix(4.86 0 0 4.86 817.35 658.04)"  >
<path style="stroke: none; stroke-width: 1; stroke-dasharray: none; stroke-linecap: butt; stroke-dashoffset: 0; stroke-linejoin: miter; stroke-miterlimit: 4; fill: rgb(219,5,44); fill-rule: nonzero; opacity: 1;" vector-effect="non-scaling-stroke"  transform=" translate(-143.45, -55.04)" d="M 114.914 48.587 L 171.989 48.587 L 171.989 61.483000000000004 L 114.914 61.483000000000004 L 114.914 48.587 Z" stroke-linecap="round" />
</g>
</svg>