<?xml version="1.0" encoding="UTF-8"?>
<!DOCTYPE svg PUBLIC "-//W3C//DTD SVG 1.1//EN" "http://www.w3.org/Graphics/SVG/1.1/DTD/svg11.dtd">
<svg xmlns="http://www.w3.org/2000/svg" version="1.1" width="512px" height="602px" style="shape-rendering:geometricPrecision; text-rendering:geometricPrecision; image-rendering:optimizeQuality; fill-rule:evenodd; clip-rule:evenodd" xmlns:xlink="http://www.w3.org/1999/xlink">
<g><path style="opacity:0.984" fill="#9c854a" d="M 220.5,-0.5 C 243.833,-0.5 267.167,-0.5 290.5,-0.5C 342.851,3.43632 394.184,13.2697 444.5,29C 459.087,33.7926 473.087,39.9593 486.5,47.5C 492.568,65.7714 497.402,84.438 501,103.5C 505.715,127.806 509.215,152.14 511.5,176.5C 511.5,201.167 511.5,225.833 511.5,250.5C 502.367,358.474 457.7,448.641 377.5,521C 341.21,552.785 301.543,579.618 258.5,601.5C 256.5,601.5 254.5,601.5 252.5,601.5C 201.478,575.315 155.312,542.315 114,502.5C 45.8858,432.723 7.71912,349.056 -0.5,251.5C -0.5,226.833 -0.5,202.167 -0.5,177.5C 3.19852,133.338 11.5318,90.0051 24.5,47.5C 49.9679,34.3998 76.6346,24.5664 104.5,18C 142.867,9.04232 181.534,2.87566 220.5,-0.5 Z"/></g>
<g><path style="opacity:1" fill="#d83b2a" d="M 238.5,16.5 C 227.694,17.8614 216.694,18.5281 205.5,18.5C 216.298,17.0006 227.298,16.334 238.5,16.5 Z"/></g>
<g><path style="opacity:1" fill="#ee0308" d="M 238.5,16.5 C 244.167,16.5 249.833,16.5 255.5,16.5C 255.5,50.5 255.5,84.5 255.5,118.5C 240.364,123.75 232.197,134.416 231,150.5C 223.745,145.788 216.245,141.454 208.5,137.5C 210.194,135.156 212.528,134.156 215.5,134.5C 220.343,135.584 225.01,137.251 229.5,139.5C 230.809,133.278 230.809,127.111 229.5,121C 221.68,118.618 213.68,117.951 205.5,119C 200.609,120.112 196.275,122.279 192.5,125.5C 191.548,123.955 191.215,122.288 191.5,120.5C 184.44,119.171 178.44,121.004 173.5,126C 172.552,126.483 171.552,126.649 170.5,126.5C 170.5,125.167 170.5,123.833 170.5,122.5C 162.51,123.023 154.51,123.356 146.5,123.5C 147.839,139.895 147.339,156.228 145,172.5C 138.214,147.741 132.381,122.741 127.5,97.5C 115.615,98.7731 103.948,100.773 92.5,103.5C 93.8041,109.607 93.3041,115.607 91,121.5C 83.6723,143.155 75.5057,164.489 66.5,185.5C 75.5595,186.803 84.5595,186.803 93.5,185.5C 83.5541,187.475 73.2208,188.142 62.5,187.5C 62.6655,191.514 62.4988,195.514 62,199.5C 61.7679,198.263 61.2679,197.263 60.5,196.5C 61.1832,178.071 62.8499,159.737 65.5,141.5C 67.1357,137.79 67.8023,133.79 67.5,129.5C 71.8828,100.586 77.5495,71.9193 84.5,43.5C 90.8739,40.5376 97.5406,38.0376 104.5,36C 137.587,26.8829 171.253,21.0496 205.5,18.5C 216.694,18.5281 227.694,17.8614 238.5,16.5 Z"/></g>
<g><path style="opacity:1" fill="#da0208" d="M 255.5,16.5 C 307.791,16.2951 359.125,23.1284 409.5,37C 415.305,39.0968 420.971,41.2635 426.5,43.5C 444.249,109.982 452.582,177.649 451.5,246.5C 450.539,248.265 450.205,250.265 450.5,252.5C 403.5,252.5 356.5,252.5 309.5,252.5C 289.336,239.959 267.336,234.626 243.5,236.5C 246.962,235.518 250.629,235.185 254.5,235.5C 254.5,218.833 254.5,202.167 254.5,185.5C 268.267,189.228 280.267,186.228 290.5,176.5C 291.487,179.768 291.82,183.102 291.5,186.5C 300.5,186.5 309.5,186.5 318.5,186.5C 316.804,171.208 316.304,155.875 317,140.5C 319.333,137.833 321.667,137.833 324,140.5C 325.611,155.832 325.778,171.166 324.5,186.5C 333.5,186.5 342.5,186.5 351.5,186.5C 351.336,183.813 351.503,181.146 352,178.5C 356.469,184.82 362.635,188.153 370.5,188.5C 375.572,188.024 380.405,186.69 385,184.5C 386.059,184.63 386.892,185.13 387.5,186C 404.497,186.5 421.497,186.667 438.5,186.5C 434.185,158.608 430.519,130.608 427.5,102.5C 418.835,101.167 410.168,99.8336 401.5,98.5C 401.5,99.8333 401.5,101.167 401.5,102.5C 401.697,113.14 402.697,123.806 404.5,134.5C 404.333,135.5 404.167,136.5 404,137.5C 403.303,134.308 401.47,132.308 398.5,131.5C 392.861,126.447 386.194,123.614 378.5,123C 370.053,122.05 361.72,122.55 353.5,124.5C 352.008,131.294 352.342,137.961 354.5,144.5C 358.198,142.651 361.864,140.818 365.5,139C 369.167,138.333 372.833,138.333 376.5,139C 377.357,139.689 378.023,140.522 378.5,141.5C 368.548,143.088 360.048,147.421 353,154.5C 352,156.167 351,157.833 350,159.5C 348.879,151.21 348.213,142.876 348,134.5C 342.553,122.694 333.387,118.194 320.5,121C 318.167,122.167 315.833,123.333 313.5,124.5C 312.585,123.672 311.919,122.672 311.5,121.5C 303.848,120.599 296.181,119.932 288.5,119.5C 289.769,124.776 290.269,130.109 290,135.5C 283.036,120.935 271.536,115.268 255.5,118.5C 255.5,84.5 255.5,50.5 255.5,16.5 Z"/></g>
<g><path style="opacity:1" fill="#faf7f8" d="M 84.5,43.5 C 77.5495,71.9193 71.8828,100.586 67.5,129.5C 66.3833,133.295 65.7167,137.295 65.5,141.5C 62.8499,159.737 61.1832,178.071 60.5,196.5C 55.2517,265.267 65.4184,331.6 91,395.5C 91.941,397.727 93.1077,399.727 94.5,401.5C 95.4916,401.328 96.1583,401.662 96.5,402.5C 93.347,404.55 90.0136,406.216 86.5,407.5C 69.6687,370.35 58.3354,331.683 52.5,291.5C 52.5557,286.269 51.889,281.269 50.5,276.5C 44.9938,199.889 52.3271,124.556 72.5,50.5C 72.4573,49.5836 72.1239,48.9169 71.5,48.5C 75.4436,46.0363 79.7769,44.3697 84.5,43.5 Z"/></g>
<g><path style="opacity:1" fill="#f9f3f3" d="M 426.5,43.5 C 430.739,44.7958 434.739,46.4625 438.5,48.5C 444.653,73.2637 449.653,98.2637 453.5,123.5C 453.367,129.489 454.367,135.156 456.5,140.5C 456.5,141.5 456.5,142.5 456.5,143.5C 456.229,148.434 456.896,153.1 458.5,157.5C 462.361,190.552 463.361,223.552 461.5,256.5C 412.495,256.167 363.495,256.5 314.5,257.5C 314.624,258.107 314.957,258.44 315.5,258.5C 336.92,275.339 348.92,297.339 351.5,324.5C 363.647,323.308 375.647,321.142 387.5,318C 393.497,315.692 397.164,311.358 398.5,305C 417.807,303.502 437.14,302.669 456.5,302.5C 441.682,391.653 400.682,466.153 333.5,526C 310.84,545.313 287.173,563.146 262.5,579.5C 259.733,580.051 257.4,581.384 255.5,583.5C 253.604,582.725 251.937,581.725 250.5,580.5C 247.709,578.265 244.709,576.265 241.5,574.5C 186.578,539.412 141.078,494.745 105,440.5C 102.155,435.473 99.3214,430.473 96.5,425.5C 112.23,420.992 127.896,415.826 143.5,410C 154.471,405.853 164.471,400.187 173.5,393C 167.08,381.998 161.913,370.498 158,358.5C 140.11,376.902 119.61,391.569 96.5,402.5C 96.1583,401.662 95.4916,401.328 94.5,401.5C 116.869,388.969 137.536,373.969 156.5,356.5C 156.833,355.333 157.167,354.167 157.5,353C 155.929,343.229 155.263,333.395 155.5,323.5C 156.434,322.432 156.768,321.099 156.5,319.5C 139.5,319.5 122.5,319.5 105.5,319.5C 102.281,319.224 99.6148,317.891 97.5,315.5C 94.8098,312.63 92.4765,309.463 90.5,306C 75.0629,302.694 70.0629,293.528 75.5,278.5C 79.2805,274.277 83.9471,271.61 89.5,270.5C 91.4798,263.354 95.8132,258.187 102.5,255C 134.167,254.667 165.833,254.333 197.5,254C 211.204,243.985 226.537,238.152 243.5,236.5C 267.336,234.626 289.336,239.959 309.5,252.5C 356.664,253.499 403.997,253.832 451.5,253.5C 451.5,251.167 451.5,248.833 451.5,246.5C 452.582,177.649 444.249,109.982 426.5,43.5 Z"/></g>
<g><path style="opacity:1" fill="#053073" d="M 71.5,48.5 C 72.1239,48.9169 72.4573,49.5836 72.5,50.5C 52.3271,124.556 44.9938,199.889 50.5,276.5C 50.4443,281.731 51.111,286.731 52.5,291.5C 58.3354,331.683 69.6687,370.35 86.5,407.5C 80.0856,410.704 73.4189,413.371 66.5,415.5C 42.0232,370.402 26.3565,322.402 19.5,271.5C 19.473,265.949 18.8063,260.616 17.5,255.5C 16.3633,230.143 16.3633,204.81 17.5,179.5C 18.8836,174.056 19.5503,168.389 19.5,162.5C 22.9074,128.611 29.2407,95.2778 38.5,62.5C 39.1887,60.6473 40.522,59.4807 42.5,59C 52.1828,55.3368 61.8495,51.8368 71.5,48.5 Z"/></g>
<g><path style="opacity:1" fill="#043073" d="M 438.5,48.5 C 449.794,52.4739 461.127,56.4739 472.5,60.5C 479.873,88.4662 485.539,116.8 489.5,145.5C 489.444,150.731 490.111,155.731 491.5,160.5C 491.5,161.167 491.5,161.833 491.5,162.5C 491.45,168.389 492.116,174.056 493.5,179.5C 493.5,179.833 493.5,180.167 493.5,180.5C 494.211,198.158 494.545,215.824 494.5,233.5C 493.916,241.38 493.249,249.213 492.5,257C 482.172,257.5 471.839,257.666 461.5,257.5C 461.5,257.167 461.5,256.833 461.5,256.5C 463.361,223.552 462.361,190.552 458.5,157.5C 458.638,152.586 457.972,147.919 456.5,143.5C 456.5,142.5 456.5,141.5 456.5,140.5C 456.137,134.593 455.137,128.927 453.5,123.5C 449.653,98.2637 444.653,73.2637 438.5,48.5 Z"/></g>
<g><path style="opacity:1" fill="#aebbd2" d="M 453.5,123.5 C 455.137,128.927 456.137,134.593 456.5,140.5C 454.367,135.156 453.367,129.489 453.5,123.5 Z"/></g>
<g><path style="opacity:1" fill="#f86763" d="M 67.5,129.5 C 67.8023,133.79 67.1357,137.79 65.5,141.5C 65.7167,137.295 66.3833,133.295 67.5,129.5 Z"/></g>
<g><path style="opacity:1" fill="#ee0409" d="M 254.5,185.5 C 254.5,202.167 254.5,218.833 254.5,235.5C 250.629,235.185 246.962,235.518 243.5,236.5C 226.537,238.152 211.204,243.985 197.5,254C 165.833,254.333 134.167,254.667 102.5,255C 95.8132,258.187 91.4798,263.354 89.5,270.5C 83.9471,271.61 79.2805,274.277 75.5,278.5C 73.5891,278.574 72.4224,279.574 72,281.5C 69.2057,296.087 75.039,304.92 89.5,308C 90.7943,312.133 93.461,314.633 97.5,315.5C 99.6148,317.891 102.281,319.224 105.5,319.5C 121.992,320.497 138.658,320.83 155.5,320.5C 155.5,321.5 155.5,322.5 155.5,323.5C 155.263,333.395 155.929,343.229 157.5,353C 157.167,354.167 156.833,355.333 156.5,356.5C 137.536,373.969 116.869,388.969 94.5,401.5C 93.1077,399.727 91.941,397.727 91,395.5C 65.4184,331.6 55.2517,265.267 60.5,196.5C 61.2679,197.263 61.7679,198.263 62,199.5C 62.4988,195.514 62.6655,191.514 62.5,187.5C 73.2208,188.142 83.5541,187.475 93.5,185.5C 93.4691,180.269 94.4691,175.269 96.5,170.5C 102.923,170.209 109.256,170.542 115.5,171.5C 116.9,176.362 117.566,181.362 117.5,186.5C 135.659,187.497 153.992,187.83 172.5,187.5C 172.5,177.167 172.5,166.833 172.5,156.5C 172.403,149.86 175.069,144.693 180.5,141C 181.793,140.51 183.127,140.343 184.5,140.5C 184.912,146.825 187.579,151.991 192.5,156C 198.658,158.912 204.658,162.079 210.5,165.5C 211.429,166.689 211.762,168.022 211.5,169.5C 207.108,170.992 202.775,170.825 198.5,169C 193.126,166.462 188.46,162.962 184.5,158.5C 183.167,166.5 183.167,174.5 184.5,182.5C 190.569,185.863 197.069,187.196 204,186.5C 217.953,187.764 228.286,182.431 235,170.5C 239.659,178.005 246.159,183.005 254.5,185.5 Z"/></g>
<g><path style="opacity:1" fill="#384965" d="M 489.5,145.5 C 490.889,150.269 491.556,155.269 491.5,160.5C 490.111,155.731 489.444,150.731 489.5,145.5 Z"/></g>
<g><path style="opacity:1" fill="#a3b2cb" d="M 456.5,143.5 C 457.972,147.919 458.638,152.586 458.5,157.5C 456.896,153.1 456.229,148.434 456.5,143.5 Z"/></g>
<g><path style="opacity:1" fill="#a1864d" d="M 255.5,118.5 C 271.536,115.268 283.036,120.935 290,135.5C 290.269,130.109 289.769,124.776 288.5,119.5C 296.181,119.932 303.848,120.599 311.5,121.5C 311.919,122.672 312.585,123.672 313.5,124.5C 315.833,123.333 318.167,122.167 320.5,121C 333.387,118.194 342.553,122.694 348,134.5C 348.213,142.876 348.879,151.21 350,159.5C 351,157.833 352,156.167 353,154.5C 360.048,147.421 368.548,143.088 378.5,141.5C 378.023,140.522 377.357,139.689 376.5,139C 372.833,138.333 369.167,138.333 365.5,139C 361.864,140.818 358.198,142.651 354.5,144.5C 352.342,137.961 352.008,131.294 353.5,124.5C 361.72,122.55 370.053,122.05 378.5,123C 386.194,123.614 392.861,126.447 398.5,131.5C 401.129,135.095 402.963,139.095 404,143.5C 405.146,153.152 406.146,162.818 407,172.5C 407.601,175.637 408.601,178.637 410,181.5C 410.667,176.167 410.667,170.833 410,165.5C 408.52,152.183 407.187,138.85 406,125.5C 404.736,117.644 403.236,109.977 401.5,102.5C 401.5,101.167 401.5,99.8333 401.5,98.5C 410.168,99.8336 418.835,101.167 427.5,102.5C 430.519,130.608 434.185,158.608 438.5,186.5C 421.497,186.667 404.497,186.5 387.5,186C 386.892,185.13 386.059,184.63 385,184.5C 380.405,186.69 375.572,188.024 370.5,188.5C 362.635,188.153 356.469,184.82 352,178.5C 351.503,181.146 351.336,183.813 351.5,186.5C 342.5,186.5 333.5,186.5 324.5,186.5C 325.778,171.166 325.611,155.832 324,140.5C 321.667,137.833 319.333,137.833 317,140.5C 316.304,155.875 316.804,171.208 318.5,186.5C 309.5,186.5 300.5,186.5 291.5,186.5C 291.82,183.102 291.487,179.768 290.5,176.5C 280.267,186.228 268.267,189.228 254.5,185.5C 246.159,183.005 239.659,178.005 235,170.5C 228.286,182.431 217.953,187.764 204,186.5C 197.069,187.196 190.569,185.863 184.5,182.5C 183.167,174.5 183.167,166.5 184.5,158.5C 188.46,162.962 193.126,166.462 198.5,169C 202.775,170.825 207.108,170.992 211.5,169.5C 211.762,168.022 211.429,166.689 210.5,165.5C 204.658,162.079 198.658,158.912 192.5,156C 187.579,151.991 184.912,146.825 184.5,140.5C 183.127,140.343 181.793,140.51 180.5,141C 175.069,144.693 172.403,149.86 172.5,156.5C 171.506,166.319 171.173,176.319 171.5,186.5C 153.5,186.5 135.5,186.5 117.5,186.5C 117.566,181.362 116.9,176.362 115.5,171.5C 112.742,170.182 109.576,169.515 106,169.5C 102.648,169.502 99.4815,169.835 96.5,170.5C 94.4691,175.269 93.4691,180.269 93.5,185.5C 84.5595,186.803 75.5595,186.803 66.5,185.5C 75.5057,164.489 83.6723,143.155 91,121.5C 93.3041,115.607 93.8041,109.607 92.5,103.5C 103.948,100.773 115.615,98.7731 127.5,97.5C 132.381,122.741 138.214,147.741 145,172.5C 147.339,156.228 147.839,139.895 146.5,123.5C 154.51,123.356 162.51,123.023 170.5,122.5C 170.5,123.833 170.5,125.167 170.5,126.5C 171.552,126.649 172.552,126.483 173.5,126C 178.44,121.004 184.44,119.171 191.5,120.5C 191.215,122.288 191.548,123.955 192.5,125.5C 196.275,122.279 200.609,120.112 205.5,119C 213.68,117.951 221.68,118.618 229.5,121C 230.809,127.111 230.809,133.278 229.5,139.5C 225.01,137.251 220.343,135.584 215.5,134.5C 212.528,134.156 210.194,135.156 208.5,137.5C 216.245,141.454 223.745,145.788 231,150.5C 232.197,134.416 240.364,123.75 255.5,118.5 Z"/></g>
<g><path style="opacity:1" fill="#c8bb9a" d="M 412.5,152.5 C 413.889,157.269 414.556,162.269 414.5,167.5C 413.111,162.731 412.444,157.731 412.5,152.5 Z"/></g>
<g><path style="opacity:1" fill="#d70f0a" d="M 289.5,150.5 C 290.818,153.258 291.485,156.424 291.5,160C 291.333,163.167 291.167,166.333 291,169.5C 288.984,167.316 286.817,165.316 284.5,163.5C 279.76,168.135 274.093,170.302 267.5,170C 263.387,168.594 261.053,165.761 260.5,161.5C 270.464,158.404 280.131,154.738 289.5,150.5 Z"/></g>
<g><path style="opacity:1" fill="#cfc4a7" d="M 187.5,127.5 C 187.5,130.5 187.5,133.5 187.5,136.5C 185.5,136.5 183.5,136.5 181.5,136.5C 182.919,135.549 184.585,135.216 186.5,135.5C 186.194,132.615 186.527,129.948 187.5,127.5 Z"/></g>
<g><path style="opacity:1" fill="#fbfaf8" d="M 359.5,126.5 C 370.563,125.474 381.23,126.974 391.5,131C 395.928,134.092 398.761,138.259 400,143.5C 400.791,156.693 402.625,169.693 405.5,182.5C 400.167,182.5 394.833,182.5 389.5,182.5C 389.617,180.516 388.95,178.85 387.5,177.5C 378.314,184.349 368.648,185.182 358.5,180C 353.718,174.383 352.218,167.883 354,160.5C 361.792,150.855 371.958,145.855 384.5,145.5C 383.349,135.263 377.682,131.429 367.5,134C 363.791,134.688 360.457,136.188 357.5,138.5C 356.511,134.893 356.177,131.226 356.5,127.5C 357.791,127.737 358.791,127.404 359.5,126.5 Z"/></g>
<g><path style="opacity:1" fill="#a2884f" d="M 381.5,151.5 C 382.833,151.5 384.167,151.5 385.5,151.5C 385.559,158.203 385.726,164.869 386,171.5C 373.601,177.812 367.934,174.145 369,160.5C 369.785,158.714 370.951,157.214 372.5,156C 375.437,154.199 378.437,152.699 381.5,151.5 Z"/></g>
<g><path style="opacity:1" fill="#d6130c" d="M 378.5,156.5 C 379.5,156.5 380.5,156.5 381.5,156.5C 381.5,161.167 381.5,165.833 381.5,170.5C 374.151,171.812 371.317,168.812 373,161.5C 374.812,159.7 376.645,158.033 378.5,156.5 Z"/></g>
<g><path style="opacity:1" fill="#fcfbf9" d="M 293.5,124.5 C 298.511,124.334 303.511,124.501 308.5,125C 309.714,127.351 310.548,129.851 311,132.5C 321.043,122.271 331.376,121.938 342,131.5C 342.667,132.833 343.333,134.167 344,135.5C 344.667,151.183 345.501,166.85 346.5,182.5C 340.833,182.5 335.167,182.5 329.5,182.5C 329.77,168.137 329.27,153.804 328,139.5C 325.459,134.931 321.625,133.431 316.5,135C 315.333,136.167 314.167,137.333 313,138.5C 312.293,153.183 312.46,167.849 313.5,182.5C 307.5,182.5 301.5,182.5 295.5,182.5C 296.043,163.091 295.376,143.758 293.5,124.5 Z"/></g>
<g><path style="opacity:1" fill="#fcfcfa" d="M 187.5,127.5 C 186.527,129.948 186.194,132.615 186.5,135.5C 184.585,135.216 182.919,135.549 181.5,136.5C 174.113,138.728 169.613,143.728 168,151.5C 167.5,161.828 167.334,172.161 167.5,182.5C 161.167,182.5 154.833,182.5 148.5,182.5C 150.931,164.213 151.598,145.88 150.5,127.5C 156.167,127.5 161.833,127.5 167.5,127.5C 167.183,130.572 167.516,133.572 168.5,136.5C 171.317,133.182 174.317,130.015 177.5,127C 180.536,124.994 183.869,124.16 187.5,124.5C 187.5,125.5 187.5,126.5 187.5,127.5 Z"/></g>
<g><path style="opacity:1" fill="#fbfbf9" d="M 207.5,122.5 C 213.851,122.557 220.185,122.89 226.5,123.5C 226.82,126.898 226.487,130.232 225.5,133.5C 220.438,130.882 215.105,130.049 209.5,131C 203.273,134.478 202.94,138.478 208.5,143C 216.613,145.689 223.78,149.855 230,155.5C 234.238,168.602 229.738,177.102 216.5,181C 206.956,183.441 197.623,182.941 188.5,179.5C 187.167,175.5 187.167,171.5 188.5,167.5C 194.45,173.146 201.45,175.313 209.5,174C 216.649,170.768 217.316,166.435 211.5,161C 204.139,157.627 197.306,153.461 191,148.5C 187.804,140.497 189.304,133.663 195.5,128C 199.227,125.299 203.227,123.465 207.5,122.5 Z"/></g>
<g><path style="opacity:1" fill="#fbfaf8" d="M 258.5,121.5 C 272.841,120.087 282.341,126.087 287,139.5C 287.821,142.554 287.655,145.554 286.5,148.5C 275.534,151.93 264.867,155.93 254.5,160.5C 257.693,171.211 264.693,175.378 275.5,173C 278.39,171.971 281.224,170.805 284,169.5C 288.468,171.605 288.635,174.105 284.5,177C 268.479,186.998 253.979,185.165 241,171.5C 234.246,159.299 233.913,146.965 240,134.5C 244.689,127.964 250.856,123.631 258.5,121.5 Z"/></g>
<g><path style="opacity:1" fill="#a18850" d="M 259.5,129.5 C 270.86,130.04 274.193,135.54 269.5,146C 264.28,148.443 258.947,150.61 253.5,152.5C 252.338,147.533 252.171,142.533 253,137.5C 254.305,134.039 256.471,131.372 259.5,129.5 Z"/></g>
<g><path style="opacity:1" fill="#d5160d" d="M 260.5,133.5 C 266.501,133.457 268.668,136.457 267,142.5C 263.676,144.33 260.176,145.663 256.5,146.5C 255.664,141.406 256.998,137.073 260.5,133.5 Z"/></g>
<g><path style="opacity:1" fill="#fcfbf9" d="M 414.5,167.5 C 414.556,162.269 413.889,157.269 412.5,152.5C 411.62,136.007 409.62,119.674 406.5,103.5C 412.155,104.249 417.822,104.915 423.5,105.5C 426.46,131.218 429.793,156.885 433.5,182.5C 427.167,182.5 420.833,182.5 414.5,182.5C 414.5,177.5 414.5,172.5 414.5,167.5 Z"/></g>
<g><path style="opacity:1" fill="#d31c10" d="M 401.5,102.5 C 403.236,109.977 404.736,117.644 406,125.5C 407.187,138.85 408.52,152.183 410,165.5C 410.667,170.833 410.667,176.167 410,181.5C 408.601,178.637 407.601,175.637 407,172.5C 406.146,162.818 405.146,153.152 404,143.5C 402.963,139.095 401.129,135.095 398.5,131.5C 401.47,132.308 403.303,134.308 404,137.5C 404.167,136.5 404.333,135.5 404.5,134.5C 402.697,123.806 401.697,113.14 401.5,102.5 Z"/></g>
<g><path style="opacity:1" fill="#fcfbfa" d="M 116.5,102.5 C 119.167,102.5 121.833,102.5 124.5,102.5C 129.563,129.483 135.896,156.15 143.5,182.5C 135.833,182.5 128.167,182.5 120.5,182.5C 120.754,177.039 120.088,171.705 118.5,166.5C 110.167,165.167 101.833,165.167 93.5,166.5C 91.5351,171.693 90.2018,177.026 89.5,182.5C 84.1667,182.5 78.8333,182.5 73.5,182.5C 80.9274,162.635 88.0941,142.635 95,122.5C 96.3469,116.905 97.1803,111.238 97.5,105.5C 104.032,104.954 110.366,103.954 116.5,102.5 Z"/></g>
<g><path style="opacity:1" fill="#bf4f2d" d="M 96.5,170.5 C 99.4815,169.835 102.648,169.502 106,169.5C 109.576,169.515 112.742,170.182 115.5,171.5C 109.256,170.542 102.923,170.209 96.5,170.5 Z"/></g>
<g><path style="opacity:1" fill="#a28a52" d="M 108.5,122.5 C 109.693,122.97 110.36,123.97 110.5,125.5C 112.631,135.487 114.631,145.487 116.5,155.5C 110.5,155.5 104.5,155.5 98.5,155.5C 101.419,144.406 104.753,133.406 108.5,122.5 Z"/></g>
<g><path style="opacity:1" fill="#e51d10" d="M 107.5,138.5 C 108.117,138.611 108.617,138.944 109,139.5C 110.028,143.473 110.861,147.473 111.5,151.5C 108.753,151.813 106.086,151.48 103.5,150.5C 105.039,146.55 106.372,142.55 107.5,138.5 Z"/></g>
<g><path style="opacity:1" fill="#3f4e63" d="M 19.5,162.5 C 19.5503,168.389 18.8836,174.056 17.5,179.5C 17.4497,173.611 18.1164,167.944 19.5,162.5 Z"/></g>
<g><path style="opacity:1" fill="#404e63" d="M 491.5,162.5 C 492.884,167.944 493.55,173.611 493.5,179.5C 492.116,174.056 491.45,168.389 491.5,162.5 Z"/></g>
<g><path style="opacity:1" fill="#d82619" d="M 172.5,156.5 C 172.5,166.833 172.5,177.167 172.5,187.5C 153.992,187.83 135.659,187.497 117.5,186.5C 135.5,186.5 153.5,186.5 171.5,186.5C 171.173,176.319 171.506,166.319 172.5,156.5 Z"/></g>
<g><path style="opacity:1" fill="#736d55" d="M 493.5,180.5 C 494.993,190.96 495.66,201.626 495.5,212.5C 495.5,219.675 495.166,226.675 494.5,233.5C 494.545,215.824 494.211,198.158 493.5,180.5 Z"/></g>
<g><path style="opacity:1" fill="#9e874c" d="M 240.5,241.5 C 274.271,238.474 302.771,249.141 326,273.5C 348.534,301.664 354.201,332.998 343,367.5C 323.585,410.8 290.085,430.967 242.5,428C 205.412,421.912 179.912,401.412 166,366.5C 152.558,318.143 166.725,280.31 208.5,253C 218.759,247.639 229.426,243.806 240.5,241.5 Z"/></g>
<g><path style="opacity:1" fill="#e65559" d="M 451.5,246.5 C 451.5,248.833 451.5,251.167 451.5,253.5C 403.997,253.832 356.664,253.499 309.5,252.5C 356.5,252.5 403.5,252.5 450.5,252.5C 450.205,250.265 450.539,248.265 451.5,246.5 Z"/></g>
<g><path style="opacity:1" fill="#ccc0a2" d="M 461.5,256.5 C 461.5,256.833 461.5,257.167 461.5,257.5C 412.664,257.168 363.997,257.501 315.5,258.5C 314.957,258.44 314.624,258.107 314.5,257.5C 363.495,256.5 412.495,256.167 461.5,256.5 Z"/></g>
<g><path style="opacity:1" fill="#f6f4ef" d="M 238.5,257.5 C 241.5,257.5 244.5,257.5 247.5,257.5C 247.5,274.833 247.5,292.167 247.5,309.5C 244.341,309.481 241.674,310.648 239.5,313C 238.167,313.667 236.833,313.667 235.5,313C 221.697,304.029 208.03,294.863 194.5,285.5C 206.263,271.618 220.929,262.284 238.5,257.5 Z"/></g>
<g><path style="opacity:1" fill="#f6f4ef" d="M 261.5,257.5 C 284.592,259.373 302.926,269.54 316.5,288C 302.622,297.861 288.455,307.361 274,316.5C 270.805,313.142 266.972,310.809 262.5,309.5C 261.5,292.179 261.167,274.846 261.5,257.5 Z"/></g>
<g><path style="opacity:1" fill="#9d864b" d="M 104.5,257.5 C 133.835,257.333 163.169,257.5 192.5,258C 173.578,273.104 161.912,292.604 157.5,316.5C 139.83,316.667 122.164,316.5 104.5,316C 98.5736,313.239 94.5736,308.739 92.5,302.5C 78.2307,300.633 73.7307,292.966 79,279.5C 82.3304,275.752 86.497,274.085 91.5,274.5C 93.2129,266.792 97.5462,261.125 104.5,257.5 Z"/></g>
<g><path style="opacity:1" fill="#c6b996" d="M 267.5,263.5 C 265.517,277.461 264.85,291.794 265.5,306.5C 264.504,292.01 264.171,277.343 264.5,262.5C 265.791,262.263 266.791,262.596 267.5,263.5 Z"/></g>
<g><path style="opacity:1" fill="#c5b793" d="M 240.5,263.5 C 241.568,262.566 242.901,262.232 244.5,262.5C 244.829,277.343 244.496,292.01 243.5,306.5C 243.5,292.167 243.5,277.833 243.5,263.5C 242.5,263.5 241.5,263.5 240.5,263.5 Z"/></g>
<g><path style="opacity:1" fill="#9d874b" d="M 240.5,263.5 C 241.5,263.5 242.5,263.5 243.5,263.5C 243.5,277.833 243.5,292.167 243.5,306.5C 241.243,306.962 239.243,307.962 237.5,309.5C 225.119,301.983 213.119,293.983 201.5,285.5C 212.003,273.748 225.003,266.415 240.5,263.5 Z"/></g>
<g><path style="opacity:1" fill="#9d864b" d="M 267.5,263.5 C 285.035,266.431 299.368,274.764 310.5,288.5C 299.338,296.248 288.005,303.748 276.5,311C 272.722,310.122 269.055,308.622 265.5,306.5C 264.85,291.794 265.517,277.461 267.5,263.5 Z"/></g>
<g><path style="opacity:1" fill="#726d55" d="M 17.5,255.5 C 18.8063,260.616 19.473,265.949 19.5,271.5C 18.0427,266.402 17.376,261.069 17.5,255.5 Z"/></g>
<g><path style="opacity:1" fill="#f02821" d="M 75.5,278.5 C 70.0629,293.528 75.0629,302.694 90.5,306C 92.4765,309.463 94.8098,312.63 97.5,315.5C 93.461,314.633 90.7943,312.133 89.5,308C 75.039,304.92 69.2057,296.087 72,281.5C 72.4224,279.574 73.5891,278.574 75.5,278.5 Z"/></g>
<g><path style="opacity:1" fill="#536d9d" d="M 50.5,276.5 C 51.889,281.269 52.5557,286.269 52.5,291.5C 51.111,286.731 50.4443,281.731 50.5,276.5 Z"/></g>
<g><path style="opacity:1" fill="#f6f4ee" d="M 185.5,297.5 C 199.266,306.084 212.933,314.917 226.5,324C 227.574,324.739 228.241,325.739 228.5,327C 227.883,332.047 227.217,337.047 226.5,342C 212.331,350.583 198.331,359.417 184.5,368.5C 173.508,344.671 173.841,321.004 185.5,297.5 Z"/></g>
<g><path style="opacity:1" fill="#093174" d="M 262.5,579.5 C 287.173,563.146 310.84,545.313 333.5,526C 400.682,466.153 441.682,391.653 456.5,302.5C 466.421,301.467 476.421,300.8 486.5,300.5C 466.744,393.713 419.411,469.547 344.5,528C 318.863,547.791 291.53,564.957 262.5,579.5 Z"/></g>
<g><path style="opacity:1" fill="#f8f2ee" d="M 323.5,300.5 C 324.376,300.369 325.043,300.702 325.5,301.5C 332.178,316.13 334.345,331.464 332,347.5C 330.393,355.156 327.893,362.489 324.5,369.5C 310.198,360.363 296.031,351.03 282,341.5C 281.201,336.913 281.368,332.413 282.5,328C 296.577,319.306 310.244,310.139 323.5,300.5 Z"/></g>
<g><path style="opacity:1" fill="#9e874c" d="M 188.5,303.5 C 200.279,310.562 211.946,317.895 223.5,325.5C 224.833,330.5 224.833,335.5 223.5,340.5C 211.998,347.417 200.664,354.583 189.5,362C 188.552,362.483 187.552,362.649 186.5,362.5C 179.255,342.511 179.921,322.844 188.5,303.5 Z"/></g>
<g><path style="opacity:1" fill="#db0208" d="M 253.5,576.5 C 254.499,529.336 254.832,482.003 254.5,434.5C 252.265,434.795 250.265,434.461 248.5,433.5C 301.563,433.598 335.73,408.265 351,357.5C 352.052,351.856 352.885,346.189 353.5,340.5C 354.482,337.038 354.815,333.371 354.5,329.5C 355.791,329.737 356.791,329.404 357.5,328.5C 370.623,326.553 383.289,323.053 395.5,318C 398.361,315.781 400.361,312.947 401.5,309.5C 414.828,308.422 428.161,307.422 441.5,306.5C 442.833,306.833 444.167,307.167 445.5,307.5C 430.728,395.563 390.061,469.063 323.5,528C 302.417,546.371 280.084,563.038 256.5,578C 255.002,578.585 254.002,578.085 253.5,576.5 Z"/></g>
<g><path style="opacity:1" fill="#9f884e" d="M 320.5,306.5 C 321.376,306.369 322.043,306.702 322.5,307.5C 325.708,314.816 327.374,322.483 327.5,330.5C 313.472,332.048 299.472,333.714 285.5,335.5C 285.201,333.396 285.534,331.396 286.5,329.5C 298.245,322.305 309.578,314.639 320.5,306.5 Z"/></g>
<g><path style="opacity:1" fill="#f13237" d="M 105.5,319.5 C 122.5,319.5 139.5,319.5 156.5,319.5C 156.768,321.099 156.434,322.432 155.5,323.5C 155.5,322.5 155.5,321.5 155.5,320.5C 138.658,320.83 121.992,320.497 105.5,319.5 Z"/></g>
<g><path style="opacity:1" fill="#f6f3ee" d="M 249.5,321.5 C 262.495,320.042 268.662,325.709 268,338.5C 264.671,347.082 258.505,350.248 249.5,348C 242.114,343.523 239.614,337.023 242,328.5C 244.396,325.933 246.896,323.6 249.5,321.5 Z"/></g>
<g><path style="opacity:1" fill="#9e884d" d="M 249.5,325.5 C 259.544,323.734 264.377,327.734 264,337.5C 261.611,343.777 257.111,345.943 250.5,344C 242.958,338.241 242.625,332.075 249.5,325.5 Z"/></g>
<g><path style="opacity:1" fill="#e64f52" d="M 357.5,328.5 C 356.791,329.404 355.791,329.737 354.5,329.5C 354.815,333.371 354.482,337.038 353.5,340.5C 353.5,336.5 353.5,332.5 353.5,328.5C 354.833,328.5 356.167,328.5 357.5,328.5 Z"/></g>
<g><path style="opacity:1" fill="#db0c0d" d="M 322.5,335.5 C 324.167,335.5 325.833,335.5 327.5,335.5C 327.5,338.167 327.5,340.833 327.5,343.5C 326.555,350.348 324.555,357.014 321.5,363.5C 309.833,355.667 298.167,347.833 286.5,340C 298.457,338.11 310.457,336.61 322.5,335.5 Z"/></g>
<g><path style="opacity:1" fill="#f5bcbb" d="M 322.5,335.5 C 324.265,334.539 326.265,334.205 328.5,334.5C 328.81,337.713 328.477,340.713 327.5,343.5C 327.5,340.833 327.5,338.167 327.5,335.5C 325.833,335.5 324.167,335.5 322.5,335.5 Z"/></g>
<g><path style="opacity:1" fill="#f8eeea" d="M 233.5,353.5 C 237.567,356.212 241.901,358.545 246.5,360.5C 247.5,377.821 247.833,395.154 247.5,412.5C 224.157,410.498 205.491,400.164 191.5,381.5C 205.529,372.156 219.529,362.823 233.5,353.5 Z"/></g>
<g><path style="opacity:1" fill="#f8f0ed" d="M 272.5,354.5 C 273.873,354.343 275.207,354.51 276.5,355C 290.044,363.932 303.378,373.099 316.5,382.5C 302.694,400.574 284.361,410.574 261.5,412.5C 261.167,395.154 261.5,377.821 262.5,360.5C 266.529,359.493 269.862,357.493 272.5,354.5 Z"/></g>
<g><path style="opacity:1" fill="#ee0509" d="M 243.5,363.5 C 243.833,377.849 243.499,392.182 242.5,406.5C 238.895,405.51 235.228,404.844 231.5,404.5C 218.049,400.388 207.049,392.721 198.5,381.5C 210.119,373.017 222.119,365.017 234.5,357.5C 237.427,359.784 240.427,361.784 243.5,363.5 Z"/></g>
<g><path style="opacity:1" fill="#db060a" d="M 268.5,406.5 C 267.5,406.5 266.5,406.5 265.5,406.5C 265.5,392.167 265.5,377.833 265.5,363.5C 268.573,361.784 271.573,359.784 274.5,357.5C 286.772,365.108 298.772,373.108 310.5,381.5C 299.907,395.467 285.907,403.8 268.5,406.5 Z"/></g>
<g><path style="opacity:1" fill="#f03839" d="M 243.5,363.5 C 244.496,377.99 244.829,392.657 244.5,407.5C 239.876,407.237 235.542,406.237 231.5,404.5C 235.228,404.844 238.895,405.51 242.5,406.5C 243.499,392.182 243.833,377.849 243.5,363.5 Z"/></g>
<g><path style="opacity:1" fill="#df3e40" d="M 265.5,363.5 C 265.5,377.833 265.5,392.167 265.5,406.5C 266.5,406.5 267.5,406.5 268.5,406.5C 267.432,407.434 266.099,407.768 264.5,407.5C 264.171,392.657 264.504,377.99 265.5,363.5 Z"/></g>
<g><path style="opacity:1" fill="#ef0208" d="M 248.5,433.5 C 250.265,434.461 252.265,434.795 254.5,434.5C 254.832,482.003 254.499,529.336 253.5,576.5C 202.625,545.802 159.792,506.136 125,457.5C 118.45,447.567 112.283,437.4 106.5,427C 106.905,426.055 107.572,425.388 108.5,425C 132.52,418.997 155.02,409.497 176,396.5C 192.217,415.684 212.717,427.851 237.5,433C 241.152,433.499 244.818,433.665 248.5,433.5 Z"/></g>
<g><path style="opacity:1" fill="#0c3273" d="M 96.5,425.5 C 99.3214,430.473 102.155,435.473 105,440.5C 141.078,494.745 186.578,539.412 241.5,574.5C 241.5,575.167 241.167,575.5 240.5,575.5C 172.679,541.019 117.679,492.019 75.5,428.5C 82.3739,426.592 89.3739,425.592 96.5,425.5 Z"/></g>
<g><path style="opacity:1" fill="#4a5f7e" d="M 241.5,574.5 C 244.709,576.265 247.709,578.265 250.5,580.5C 246.849,579.341 243.515,577.674 240.5,575.5C 241.167,575.5 241.5,575.167 241.5,574.5 Z"/></g>
</svg>
