<?xml version="1.0" encoding="UTF-8"?><svg id="Layer_1" xmlns="http://www.w3.org/2000/svg" viewBox="0 0 31.34 35.82"><defs><style>.cls-1{fill:#1c1c1c;}.cls-2{fill:#e0092c;}</style></defs><path class="cls-2" d="M24.19,15.98c-.12.38-.25.77-.39,1.16l.03-10.04,2.03-1.5c-.02.39-.06.9-.08,1.19,0,.07-.01.17-.02.3-.09,1.22-.35,4.94-1.56,8.89ZM19.21,10.51v14.52c.89-1.07,1.71-2.23,2.43-3.44v-12.88l-2.43,1.8ZM14.42,14.05v13.44c.55.56,1.01,1.01,1.25,1.24.24-.23.69-.66,1.23-1.19v-15.32l-2.48,1.83ZM9.69,17.55v3.95c.74,1.24,1.58,2.44,2.5,3.54v-9.34l-2.5,1.85Z"/><path class="cls-1" d="M8.8,14.84c.08-.15.31-.22.42-.07.24-.12.34-.13.44-.07l.27.06c.16-.17.39-.11.49.11.05.11-.11.19-.17.08-.34.06-.44.07-.52.03l-.26-.08c-.09.11-.24.22-.35.06-.21.08-.37,0-.32-.11ZM9.7,15.38c-.06.11.11.19.32.11.05.07.15.1.35-.06l.26.08c.09.05.18.04.52-.02.05.11.22.03.17-.08-.1-.22-.33-.28-.76-.17-.1-.05-.2-.04-.44.07-.11-.14-.35-.08-.42.07ZM8.52,14.94c.05.11.22.03.17-.08-.1-.22-.33-.28-.76-.17-.1-.05-.2-.04-.44.07-.11-.14-.34-.08-.42.07-.06.11.11.19.32.11.05.08.15.1.35-.06l.26.08c.09.04.18.04.52-.03ZM9.64,15.73c-.1-.05-.2-.04-.44.07-.11-.14-.35-.08-.42.07-.05.11.11.19.32.11.11.16.26.05.35-.06l.26.08c.09.04.19.04.52-.03.05.11.22.03.16-.08-.1-.22-.33-.28-.76-.17ZM11.74,14.28c.05.07.15.1.35-.06l.26.08c.09.04.19.04.52-.03.05.11.22.03.16-.08-.1-.22-.33-.28-.76-.17-.1-.05-.2-.04-.44.07-.11-.15-.34-.08-.42.07-.06.11.11.19.31.11ZM8.57,15.43l.26.08c.09.05.19.04.52-.02.05.11.21.03.17-.08-.1-.22-.33-.28-.49-.11l-.27-.06c-.1-.05-.2-.04-.44.07-.11-.14-.34-.08-.42.07-.05.11.11.19.32.11.11.16.26.05.35-.06ZM10.8,16.03l.33-.24-.16.02c-.11-.14-.34-.08-.42.07-.05.09.09.19.25.15ZM8.36,16.44l.26.08c.09.04.19.04.52-.03.05.11.22.03.17-.08-.1-.22-.33-.28-.49-.11l-.27-.06c-.1-.05-.2-.04-.44.07-.11-.14-.34-.08-.42.07-.06.11.11.19.32.11.05.07.15.1.35-.06ZM7.72,10c-.43,0-.79.24-.93.56h1.87c-.13-.33-.51-.56-.94-.56ZM9.37,8.24h1.86l-.89-1.86v-.56h.23v-.08h-.23l-.08-.25v.25l-.13.05-.11.04h.25v.56l-.89,1.86ZM10.06,16.32c-.11-.14-.34-.08-.42.07-.05.11.11.19.16.08.02-.04.12-.02.2.15l.49-.36c-.09-.04-.22-.04-.43.06ZM26.46,4.82v.18s-.02.12-.02.12c0,0,0,.02,0,.05-.01.23-.07,1.22-.11,1.67,0,.07-.01.17-.02.29-.09,1.24-.36,5.01-1.58,9.02-.24.78-.54,1.58-.88,2.38-1.12,2.61-2.75,5.21-4.65,7.39-1.52,1.74-3.32,3.39-3.33,3.41l-.19.18-.19-.18s-1.77-1.67-3.29-3.41c-1.83-2.1-3.4-4.58-4.51-7.08-.05-.1-.09-.21-.14-.31,0-.02-.02-.05-.03-.07-.33-.77-.62-1.55-.85-2.31-1.23-4.02-1.5-7.79-1.58-9.02,0-.12-.02-.22-.02-.28-.04-.51-.11-1.67-.11-1.72l-.02-.3h21.53ZM9.37,10.74v-2.24h1.86v2.93l1.66-1.08,3.34.76v-.86l-.18.04-.12.4h-.13s.04-.49.04-.49c0,0-.36.22-.53.31h-.22s.67-.44.67-.44l-.03-.27-.33.04-.12-.13.41-.26.09-.13.02.09.12.04-.07.06.22.25h.16v-1.1l-.18.04-.12.4h-.13s.04-.49.04-.49c0,0-.36.22-.53.31h-.22s.67-.44.67-.44l-.03-.27-.33.04-.12-.13.41-.26.09-.13.02.09.12.04-.07.06.22.25h.16v-.45c-.41-.08-.72-.43-.75-.85h-.46v-.56h.44c.09-.36.43-.57.78-.67v-.22h.53v.22c.38.12.64.22.78.67h.44v.56h-.47c-.03.42-.35.77-.75.85v.41s.24-.02.24-.02l.57.12.42-.02-.44.2-.25-.07.27.42-.04.32h-.1s-.02-.3-.02-.3l-.25-.19.09.29s-.09.16-.15.23h-.15c.03-.05.14-.24.14-.24l-.25-.34-.08.02v1.16s.25-.02.25-.02l.57.12.42-.02-.44.2-.25-.07.27.42-.04.32h-.1s-.02-.3-.02-.3l-.25-.19.09.29s-.09.16-.15.23h-.15c.03-.05.14-.24.14-.24l-.25-.34-.1.02v1.1s.34.13.34.13h0s8.13-6.01,8.13-6.01H5.53c.02.39.06,1.07.09,1.41,0,.07.01.17.02.29.05.64.14,1.97.39,3.66h3.33ZM14.42,12.37c-.5,0-.9.83-.91,1.66l1.52-1.12c-.16-.26-.37-.53-.61-.53ZM7.82,17.73c.19-.08.28-.09.37-.04l.26.08.42-.31-.19-.04c-.09.11-.24.22-.35.06-.21.08-.37,0-.32-.11.08-.15.31-.22.42-.07.24-.12.34-.13.44-.07l.2.09.46-.34-.28-.09c-.09.11-.24.22-.35.06-.21.08-.37,0-.32-.11.08-.15.31-.22.42-.07.24-.12.34-.13.44-.07l.33.11h0s.21-.16.21-.16l2.21-1.63c-.31.05-.43.02-.51-.03l-.26-.08c-.2.16-.3.13-.35.06-.21.08-.37,0-.32-.11.08-.15.31-.22.42-.07.24-.12.34-.13.44-.07l.27.06c.14-.15.35-.05.47.12l.87-.64c-.17-2.44-1.79-2.58-1.99.14h-4.48c.03.11.05.21.08.32.07.03.13.09.16.17.03.07-.03.13-.08.13.02.09.05.18.07.27l.11.06c.3-.2.53-.14.63.08.05.11-.11.19-.16.08-.31.06-.42.07-.5.03.02.07.04.15.06.22.03.01.06.03.09.06.24-.12.34-.13.44-.07.42-.11.66-.05.76.17.05.11-.12.19-.17.08-.34.06-.44.07-.52.03l-.26-.08c-.11.09-.19.12-.24.11.02.06.04.13.06.19.13-.03.27.04.34.19.05.11-.11.19-.17.08l-.1-.04c.03.08.05.16.08.24l.19.04c.16-.17.39-.11.49.11.05.11-.12.19-.16.08-.23.03-.34.05-.41.05.03.07.05.14.07.21.11,0,.21.07.27.2.05.11-.1.18-.16.09.03.09.07.17.1.26ZM7.98,18.11l.23-.17-.21-.06-.05.16s.02.05.03.07ZM25.85,5.6l-2.03,1.5-2.18,1.61-2.43,1.8-2.31,1.71-2.48,1.83-2.23,1.65-2.5,1.85-1.49,1.1c.43.96.93,1.92,1.49,2.86.74,1.24,1.58,2.44,2.5,3.54.14.17.28.34.43.5.61.69,1.25,1.38,1.8,1.94.55.56,1.01,1.01,1.25,1.24.24-.23.69-.66,1.23-1.19.57-.58,1.25-1.28,1.87-1.99.15-.17.29-.34.44-.51.89-1.07,1.71-2.23,2.43-3.44.6-1,1.14-2.04,1.6-3.07.2-.46.39-.92.56-1.38.14-.39.27-.77.39-1.16,1.21-3.95,1.47-7.67,1.56-8.89,0-.13.02-.23.02-.3.02-.29.06-.8.08-1.19ZM10.98,27.62c.25.43.32.83.32,1.15,0,.26-.07.43-.18.48-.12.05-.23.04-.65-.43l-.87-.97v-3.28l1,1.12c.5.56.63,1.21.63,1.55,0,.47-.17.42-.25.39ZM10.02,26.31l.5.56c.17.19.3.23.3-.03s-.12-.49-.31-.7l-.49-.55v.72ZM10.87,28.22c0-.29-.15-.57-.31-.74l-.54-.61v.88l.52.59c.21.23.33.22.33-.11ZM11.91,30.46l.43.48v-3.28l-.43-.48v3.28ZM13.93,29.17l-.49-.45v3.27l1.61,1.51v-.64l-1.13-1.06v-2.63h0ZM17.65,31.16c0,.26-.08.58-.2.86-.13.3-.25.54-.72.97l-.96.91v-3.28l1.1-1.04c.56-.52.7-.16.7.18,0,.47-.18.78-.28.93.28-.11.35.14.35.46ZM16.23,31.48l.56-.53c.19-.18.34-.42.34-.68s-.13-.23-.35-.02l-.55.51v.72ZM17.17,31.54c0-.29-.17-.24-.34-.08l-.61.57v.88l.58-.55c.23-.22.36-.49.36-.82ZM19.46,27.14l.8,2.53-.52.49-.15-.54-.84.79-.16.83-.5.47.81-4.04.55-.52ZM19.46,29.17l-.28-1.03-.3,1.58.58-.55ZM22.25,25.31c.29,1.37-.38,2.25-.66,2.52-.27.27-1.02.82-1.32-.55-.3-1.37.38-2.25.66-2.52.27-.27,1.02-.82,1.32.55ZM21.82,25.74c-.18-.81-.55-.69-.78-.46-.23.23-.51.76-.34,1.57.18.81.55.69.78.46.23-.23.51-.76.34-1.57ZM28.91,9.46l-.86,1.06-.87-1.06h-.7l1.17,1.51-1.17,1.54h.7l.87-1.06.86,1.06h.7l-1.17-1.54,1.17-1.51h-.7ZM4.14,9.46l-.86,1.06-.87-1.06h-.7l1.17,1.51-1.17,1.54h.7l.87-1.06.86,1.06h.7l-1.17-1.54,1.17-1.51h-.7ZM2.67,3.69h-.31l.9-2.01h.32l.89,2.01h-.32l-.29-.66h-.89l-.3.66ZM3.1,2.73h.63l-.31-.7-.31.7ZM5.39,3.69h.29v-1.72h.7v-.29h-1.69v.29h.7v1.72ZM7.23,2.78h1.17v.91h.29V1.67h-.29v.81h-1.17v-.81h-.29v2.01h.29v-.91ZM11.01,3.4h-1.21v-1.72h-.29v2.01h1.5v-.29ZM13.1,3.4h-1.39v-.62h.68v-.29h-.68v-.53h1.34v-.29h-1.63v2.01h1.68v-.29ZM14.2,3.69h.29v-1.72h.7v-.29h-1.69v.29h.7v1.72ZM16.01,1.67h-.29v2.01h.29V1.67ZM17.66,3.73c.57,0,.81-.2,1-.4l-.19-.21c-.09.1-.31.32-.74.32-.55,0-.83-.38-.83-.74,0-.5.39-.78.76-.78.41,0,.66.23.75.31l.21-.18c-.1-.09-.42-.41-.97-.41-.59,0-1.04.47-1.04,1.07s.51,1.03,1.05,1.03ZM21.1,3.73c.57,0,.81-.2,1-.4l-.19-.21c-.09.1-.31.32-.74.32-.55,0-.83-.38-.83-.74,0-.5.39-.78.76-.78.41,0,.66.23.75.31l.22-.18c-.1-.09-.43-.41-.97-.41-.59,0-1.05.47-1.05,1.07,0,.62.51,1.03,1.05,1.03ZM24.2,3.4h-1.21v-1.72h-.29v2.01h1.5v-.29ZM25.54,3.73c.73,0,.87-.42.87-.8v-1.25h-.29v1.25c0,.3-.12.51-.59.51s-.59-.22-.59-.51v-1.25h-.29v1.25c0,.38.14.8.87.8ZM28.31,3.69h-1.14V1.67h1.14c.3,0,.58.17.58.55,0,.22-.11.33-.18.41.11.05.27.22.27.48,0,.38-.29.58-.68.58ZM27.46,2.52h.85c.2,0,.3-.12.3-.3,0-.16-.09-.26-.3-.26h-.85v.55ZM27.46,3.4h.85c.27,0,.39-.1.39-.3,0-.18-.09-.3-.39-.3h-.85v.59ZM31.32,2.73s0,.1,0,.2c-.04,4.15-.46,8.18-1.22,11.65-1.35,6.19-4.09,11.2-8.87,16.23-2.31,2.43-5.31,4.8-5.34,4.83l-.22.17-.22-.17s-3.06-2.46-5.37-4.89C5.32,25.72,2.58,20.72,1.23,14.53.47,11.06.05,7.03.01,2.87c0-.1,0-.17,0-.2,0-.25,0-1.75,0-2.39V0h31.34s0,.28,0,.28c0,.09,0,2.14-.01,2.45ZM30.77.56H.56c0,.69,0,1.88,0,2.09,0,.03,0,.11,0,.22.04,4.11.45,8.1,1.2,11.54,1.33,6.08,4.02,11.01,8.73,15.97,2.01,2.12,4.57,4.24,5.18,4.73.6-.48,3.14-2.55,5.15-4.67,4.7-4.96,7.4-9.88,8.73-15.97.75-3.43,1.17-7.42,1.2-11.54,0-.11,0-.18,0-.22,0-.24,0-1.56.01-2.15Z"/></svg>